<?xml version="1.0" encoding="us-ascii" standalone="no"?><svg xmlns="http://www.w3.org/2000/svg" xmlns:xlink="http://www.w3.org/1999/xlink" contentStyleType="text/css" height="394px" preserveAspectRatio="none" style="width:710px;height:394px;background:#FFFFFF;" version="1.1" viewBox="0 0 710 394" width="710px" zoomAndPan="magnify"><defs/><g><text fill="#000000" font-family="sans-serif" font-size="14" font-weight="bold" lengthAdjust="spacing" textLength="238" x="229" y="24.5332">MediaPipe Pose Allocator Classes</text><!--class PoseAllocatorBase--><g id="elem_PoseAllocatorBase"><rect codeLine="6" fill="#F1F1F1" height="224.0938" id="PoseAllocatorBase" rx="2.5" ry="2.5" style="stroke:#181818;stroke-width:0.5;" width="694" x="9" y="45.6094"/><ellipse cx="292.25" cy="61.6094" fill="#A9DCDF" rx="11" ry="11" style="stroke:#181818;stroke-width:1.0;"/><path d="M294.4375,63.375 L290.2969,63.375 L289.875,64.4063 L290.2969,64.4063 Q290.9063,64.4063 291.1719,64.6406 Q291.4375,64.875 291.4375,65.2656 Q291.4375,65.6406 291.1719,65.875 Q290.9063,66.1094 290.2969,66.1094 L288,66.1094 Q287.3906,66.1094 287.1406,65.875 Q286.875,65.6406 286.875,65.25 Q286.875,64.875 287.1563,64.6406 Q287.4219,64.3906 288.0469,64.4063 L290.7188,57.75 L289.6094,57.75 Q289,57.75 288.7344,57.5156 Q288.4688,57.2813 288.4688,56.8906 Q288.4688,56.5156 288.7344,56.2813 Q289,56.0469 289.6094,56.0469 L293.2813,56.0469 L296.6719,64.4063 Q297.2656,64.4063 297.4531,64.5469 Q297.8438,64.8125 297.8438,65.2656 Q297.8438,65.6406 297.5781,65.875 Q297.3281,66.1094 296.7188,66.1094 L294.4219,66.1094 Q293.8125,66.1094 293.5469,65.875 Q293.2813,65.6406 293.2813,65.25 Q293.2813,64.875 293.5469,64.6406 Q293.8125,64.4063 294.4219,64.4063 L294.8438,64.4063 L294.4375,63.375 Z M293.7188,61.6719 L292.3594,58.2969 L290.9844,61.6719 L293.7188,61.6719 Z " fill="#000000"/><text fill="#000000" font-family="sans-serif" font-size="14" font-style="italic" lengthAdjust="spacing" textLength="119" x="312.75" y="67.3379">PoseAllocatorBase</text><line style="stroke:#181818;stroke-width:0.5;" x1="10" x2="702" y1="77.6094" y2="77.6094"/><polygon fill="none" points="20,86.9141,24,90.9141,20,94.9141,16,90.9141" style="stroke:#B38D22;stroke-width:1.0;"/><text fill="#000000" font-family="sans-serif" font-size="14" lengthAdjust="spacing" textLength="148" x="29" y="96.1426">bodyPart : GameObject</text><polygon fill="none" points="20,104.5234,24,108.5234,20,112.5234,16,108.5234" style="stroke:#B38D22;stroke-width:1.0;"/><text fill="#000000" font-family="sans-serif" font-size="14" lengthAdjust="spacing" textLength="350" x="29" y="113.752">landmarks : ReadOnlyCollection&lt;NormalizedLandmark&gt;</text><polygon fill="none" points="20,122.1328,24,126.1328,20,130.1328,16,126.1328" style="stroke:#B38D22;stroke-width:1.0;"/><text fill="#000000" font-family="sans-serif" font-size="14" lengthAdjust="spacing" textLength="201" x="29" y="131.3613">parentRotation : LocalRotation?</text><polygon fill="none" points="20,139.7422,24,143.7422,20,147.7422,16,143.7422" style="stroke:#B38D22;stroke-width:1.0;"/><text fill="#000000" font-family="sans-serif" font-size="14" lengthAdjust="spacing" text-decoration="underline" textLength="112" x="29" y="148.9707">CacheLength : int</text><polygon fill="none" points="20,157.3516,24,161.3516,20,165.3516,16,161.3516" style="stroke:#B38D22;stroke-width:1.0;"/><text fill="#000000" font-family="sans-serif" font-size="14" lengthAdjust="spacing" textLength="288" x="29" y="166.5801">localRotationsCache : Queue&lt;LocalRotation&gt;</text><line style="stroke:#181818;stroke-width:0.5;" x1="10" x2="702" y1="173.6563" y2="173.6563"/><ellipse cx="20" cy="187.9609" fill="#84BE84" rx="3" ry="3" style="stroke:#038048;stroke-width:1.0;"/><text fill="#000000" font-family="sans-serif" font-size="14" lengthAdjust="spacing" textLength="668" x="29" y="192.1895">PoseAllocatorBase(GameObject, ReadOnlyCollection&lt;NormalizedLandmark&gt;, LocalRotation? = null) : void</text><ellipse cx="20" cy="205.5703" fill="#84BE84" rx="3" ry="3" style="stroke:#038048;stroke-width:1.0;"/><text fill="#000000" font-family="sans-serif" font-size="14" font-style="italic" lengthAdjust="spacing" textLength="97" x="29" y="209.7988">Allocate() : void</text><polygon fill="#FFFF44" points="20,218.1797,24,222.1797,20,226.1797,16,222.1797" style="stroke:#B38D22;stroke-width:1.0;"/><text fill="#000000" font-family="sans-serif" font-size="14" font-style="italic" lengthAdjust="spacing" textLength="294" x="29" y="227.4082">AddCurrentLocalRotation(LocalRotation) : void</text><polygon fill="#FFFF44" points="20,235.7891,24,239.7891,20,243.7891,16,239.7891" style="stroke:#B38D22;stroke-width:1.0;"/><text fill="#000000" font-family="sans-serif" font-size="14" font-style="italic" lengthAdjust="spacing" textLength="290" x="29" y="245.0176">UpdateBodyPartAverageLocalRotation() : void</text><polygon fill="#FFFF44" points="20,253.3984,24,257.3984,20,261.3984,16,257.3984" style="stroke:#B38D22;stroke-width:1.0;"/><text fill="#000000" font-family="sans-serif" font-size="14" font-style="italic" lengthAdjust="spacing" textLength="138" x="29" y="262.627">ApplyToModel() : void</text></g><!--class ChestAllocator--><g id="elem_ChestAllocator"><rect codeLine="21" fill="#F1F1F1" height="57.6094" id="ChestAllocator" rx="2.5" ry="2.5" style="stroke:#181818;stroke-width:0.5;" width="124" x="215" y="329.6094"/><ellipse cx="230" cy="345.6094" fill="#ADD1B2" rx="11" ry="11" style="stroke:#181818;stroke-width:1.0;"/><path d="M232.7656,341.4844 Q232.9219,341.2656 233.1094,341.1563 Q233.2969,341.0469 233.5156,341.0469 Q233.8906,341.0469 234.125,341.3125 Q234.3594,341.5625 234.3594,342.1719 L234.3594,343.625 Q234.3594,344.2344 234.125,344.5 Q233.8906,344.7656 233.5156,344.7656 Q233.1719,344.7656 232.9688,344.5625 Q232.7656,344.375 232.6563,343.8594 Q232.6094,343.5 232.4219,343.3125 Q232.0938,342.9375 231.4844,342.7188 Q230.875,342.5 230.25,342.5 Q229.4844,342.5 228.8438,342.8281 Q228.2188,343.1563 227.7188,343.9063 Q227.2344,344.6563 227.2344,345.6875 L227.2344,346.7813 Q227.2344,348.0156 228.125,348.8438 Q229.0156,349.6563 230.6094,349.6563 Q231.5469,349.6563 232.2031,349.4063 Q232.5938,349.25 233.0156,348.8125 Q233.2813,348.5469 233.4219,348.4688 Q233.5781,348.3906 233.7813,348.3906 Q234.1094,348.3906 234.3594,348.6563 Q234.625,348.9063 234.625,349.25 Q234.625,349.5938 234.2813,350 Q233.7813,350.5781 232.9844,350.9063 Q231.9063,351.3594 230.6094,351.3594 Q229.0938,351.3594 227.8906,350.7344 Q226.9063,350.2344 226.2188,349.1719 Q225.5313,348.0938 225.5313,346.8125 L225.5313,345.6563 Q225.5313,344.3281 226.1406,343.1875 Q226.7656,342.0313 227.8594,341.4219 Q228.9531,340.7969 230.1875,340.7969 Q230.9219,340.7969 231.5625,340.9688 Q232.2188,341.125 232.7656,341.4844 Z " fill="#000000"/><text fill="#000000" font-family="sans-serif" font-size="14" lengthAdjust="spacing" textLength="92" x="244" y="351.3379">ChestAllocator</text><line style="stroke:#181818;stroke-width:0.5;" x1="216" x2="338" y1="361.6094" y2="361.6094"/><ellipse cx="226" cy="375.9141" fill="#84BE84" rx="3" ry="3" style="stroke:#038048;stroke-width:1.0;"/><text fill="#000000" font-family="sans-serif" font-size="14" lengthAdjust="spacing" textLength="98" x="235" y="380.1426">Allocate() : void</text></g><!--class SpineAllocator--><g id="elem_SpineAllocator"><rect codeLine="27" fill="#F1F1F1" height="57.6094" id="SpineAllocator" rx="2.5" ry="2.5" style="stroke:#181818;stroke-width:0.5;" width="124" x="374" y="329.6094"/><ellipse cx="389.45" cy="345.6094" fill="#ADD1B2" rx="11" ry="11" style="stroke:#181818;stroke-width:1.0;"/><path d="M392.2156,341.4844 Q392.3719,341.2656 392.5594,341.1563 Q392.7469,341.0469 392.9656,341.0469 Q393.3406,341.0469 393.575,341.3125 Q393.8094,341.5625 393.8094,342.1719 L393.8094,343.625 Q393.8094,344.2344 393.575,344.5 Q393.3406,344.7656 392.9656,344.7656 Q392.6219,344.7656 392.4188,344.5625 Q392.2156,344.375 392.1063,343.8594 Q392.0594,343.5 391.8719,343.3125 Q391.5438,342.9375 390.9344,342.7188 Q390.325,342.5 389.7,342.5 Q388.9344,342.5 388.2938,342.8281 Q387.6688,343.1563 387.1688,343.9063 Q386.6844,344.6563 386.6844,345.6875 L386.6844,346.7813 Q386.6844,348.0156 387.575,348.8438 Q388.4656,349.6563 390.0594,349.6563 Q390.9969,349.6563 391.6531,349.4063 Q392.0438,349.25 392.4656,348.8125 Q392.7313,348.5469 392.8719,348.4688 Q393.0281,348.3906 393.2313,348.3906 Q393.5594,348.3906 393.8094,348.6563 Q394.075,348.9063 394.075,349.25 Q394.075,349.5938 393.7313,350 Q393.2313,350.5781 392.4344,350.9063 Q391.3563,351.3594 390.0594,351.3594 Q388.5438,351.3594 387.3406,350.7344 Q386.3563,350.2344 385.6688,349.1719 Q384.9813,348.0938 384.9813,346.8125 L384.9813,345.6563 Q384.9813,344.3281 385.5906,343.1875 Q386.2156,342.0313 387.3094,341.4219 Q388.4031,340.7969 389.6375,340.7969 Q390.3719,340.7969 391.0125,340.9688 Q391.6688,341.125 392.2156,341.4844 Z " fill="#000000"/><text fill="#000000" font-family="sans-serif" font-size="14" lengthAdjust="spacing" textLength="91" x="403.55" y="351.3379">SpineAllocator</text><line style="stroke:#181818;stroke-width:0.5;" x1="375" x2="497" y1="361.6094" y2="361.6094"/><ellipse cx="385" cy="375.9141" fill="#84BE84" rx="3" ry="3" style="stroke:#038048;stroke-width:1.0;"/><text fill="#000000" font-family="sans-serif" font-size="14" lengthAdjust="spacing" textLength="98" x="394" y="380.1426">Allocate() : void</text></g><!--reverse link PoseAllocatorBase to ChestAllocator--><g id="link_PoseAllocatorBase_ChestAllocator"><path codeLine="19" d="M305.242,286.4807 C296.482,308.5607 294.66,313.1294 288.27,329.2294 " fill="none" id="PoseAllocatorBase-backto-ChestAllocator" style="stroke:#181818;stroke-width:1.0;stroke-dasharray:7.0,7.0;"/><polygon fill="none" points="311.88,269.7494,299.6649,284.268,310.8191,288.6934,311.88,269.7494" style="stroke:#181818;stroke-width:1.0;"/></g><!--reverse link PoseAllocatorBase to SpineAllocator--><g id="link_PoseAllocatorBase_SpineAllocator"><path codeLine="25" d="M407.3898,286.452 C416.2598,308.532 418.12,313.1294 424.59,329.2294 " fill="none" id="PoseAllocatorBase-backto-SpineAllocator" style="stroke:#181818;stroke-width:1.0;stroke-dasharray:7.0,7.0;"/><polygon fill="none" points="400.68,269.7494,401.8223,288.6886,412.9574,284.2154,400.68,269.7494" style="stroke:#181818;stroke-width:1.0;"/></g><!--SRC=[ZP9DRi8m48NtFiL8RAX07A2YL915Dr0eRGymYKV4xSIsR0SffToz3k4lZQYQtSnyxpsFuw024on8AbmfIx0odc3AR38Cna72w3rv8N8b2QYmeOA2YfHSx67gWyCiG5PJ1-bPEKDFEm7nwwL6LYjq0UxX2GjQfX-KXMR4g6M1xjF7sPfGBZLNYM6EW39w_6nSWQo-ICwFuAJHMNIamze4hBaediTKFjMF3RJpTPdj8S4ifpdfJSWZglGf_5hZ3r0SlvHKqhZbDu63OD1Pi7_PP_ZFymz_7HKUG9VCTp5vQvHiWdQdczqVuwZV0dfNW9H9wUhRQFdsMzKjyRkLqNjs_3_JBJdSKDldPgwrNBsPXP745sWlHEUIOFmz6a6Iam_dlX3Dasbtc_SowEvys_RLAaqTstRt3ziV]--></g></svg>