<?xml version="1.0" encoding="us-ascii" standalone="no"?><svg xmlns="http://www.w3.org/2000/svg" xmlns:xlink="http://www.w3.org/1999/xlink" contentStyleType="text/css" height="2015px" preserveAspectRatio="none" style="width:2184px;height:2015px;background:#FFFFFF;" version="1.1" viewBox="0 0 2184 2015" width="2184px" zoomAndPan="magnify"><defs/><g><text fill="#000000" font-family="sans-serif" font-size="14" font-weight="bold" lengthAdjust="spacing" textLength="284" x="943.25" y="24.5332">MediaPipe Unity Plugin HandLandmarker</text><!--class Object--><g id="elem_Object"><rect fill="#F1F1F1" height="32" id="Object" rx="2.5" ry="2.5" style="stroke:#181818;stroke-width:0.5;" width="73" x="761" y="45.6094"/><ellipse cx="776" cy="61.6094" fill="#ADD1B2" rx="11" ry="11" style="stroke:#181818;stroke-width:1.0;"/><path d="M778.7656,57.4844 Q778.9219,57.2656 779.1094,57.1563 Q779.2969,57.0469 779.5156,57.0469 Q779.8906,57.0469 780.125,57.3125 Q780.3594,57.5625 780.3594,58.1719 L780.3594,59.625 Q780.3594,60.2344 780.125,60.5 Q779.8906,60.7656 779.5156,60.7656 Q779.1719,60.7656 778.9688,60.5625 Q778.7656,60.375 778.6563,59.8594 Q778.6094,59.5 778.4219,59.3125 Q778.0938,58.9375 777.4844,58.7188 Q776.875,58.5 776.25,58.5 Q775.4844,58.5 774.8438,58.8281 Q774.2188,59.1563 773.7188,59.9063 Q773.2344,60.6563 773.2344,61.6875 L773.2344,62.7813 Q773.2344,64.0156 774.125,64.8438 Q775.0156,65.6563 776.6094,65.6563 Q777.5469,65.6563 778.2031,65.4063 Q778.5938,65.25 779.0156,64.8125 Q779.2813,64.5469 779.4219,64.4688 Q779.5781,64.3906 779.7813,64.3906 Q780.1094,64.3906 780.3594,64.6563 Q780.625,64.9063 780.625,65.25 Q780.625,65.5938 780.2813,66 Q779.7813,66.5781 778.9844,66.9063 Q777.9063,67.3594 776.6094,67.3594 Q775.0938,67.3594 773.8906,66.7344 Q772.9063,66.2344 772.2188,65.1719 Q771.5313,64.0938 771.5313,62.8125 L771.5313,61.6563 Q771.5313,60.3281 772.1406,59.1875 Q772.7656,58.0313 773.8594,57.4219 Q774.9531,56.7969 776.1875,56.7969 Q776.9219,56.7969 777.5625,56.9688 Q778.2188,57.125 778.7656,57.4844 Z " fill="#000000"/><text fill="#000000" font-family="sans-serif" font-size="14" lengthAdjust="spacing" textLength="41" x="790" y="67.3379">Object</text></g><!--class Component--><g id="elem_Component"><rect fill="#F1F1F1" height="32" id="Component" rx="2.5" ry="2.5" style="stroke:#181818;stroke-width:0.5;" width="105" x="667" y="137.6094"/><ellipse cx="682" cy="153.6094" fill="#ADD1B2" rx="11" ry="11" style="stroke:#181818;stroke-width:1.0;"/><path d="M684.7656,149.4844 Q684.9219,149.2656 685.1094,149.1563 Q685.2969,149.0469 685.5156,149.0469 Q685.8906,149.0469 686.125,149.3125 Q686.3594,149.5625 686.3594,150.1719 L686.3594,151.625 Q686.3594,152.2344 686.125,152.5 Q685.8906,152.7656 685.5156,152.7656 Q685.1719,152.7656 684.9688,152.5625 Q684.7656,152.375 684.6563,151.8594 Q684.6094,151.5 684.4219,151.3125 Q684.0938,150.9375 683.4844,150.7188 Q682.875,150.5 682.25,150.5 Q681.4844,150.5 680.8438,150.8281 Q680.2188,151.1563 679.7188,151.9063 Q679.2344,152.6563 679.2344,153.6875 L679.2344,154.7813 Q679.2344,156.0156 680.125,156.8438 Q681.0156,157.6563 682.6094,157.6563 Q683.5469,157.6563 684.2031,157.4063 Q684.5938,157.25 685.0156,156.8125 Q685.2813,156.5469 685.4219,156.4688 Q685.5781,156.3906 685.7813,156.3906 Q686.1094,156.3906 686.3594,156.6563 Q686.625,156.9063 686.625,157.25 Q686.625,157.5938 686.2813,158 Q685.7813,158.5781 684.9844,158.9063 Q683.9063,159.3594 682.6094,159.3594 Q681.0938,159.3594 679.8906,158.7344 Q678.9063,158.2344 678.2188,157.1719 Q677.5313,156.0938 677.5313,154.8125 L677.5313,153.6563 Q677.5313,152.3281 678.1406,151.1875 Q678.7656,150.0313 679.8594,149.4219 Q680.9531,148.7969 682.1875,148.7969 Q682.9219,148.7969 683.5625,148.9688 Q684.2188,149.125 684.7656,149.4844 Z " fill="#000000"/><text fill="#000000" font-family="sans-serif" font-size="14" lengthAdjust="spacing" textLength="73" x="696" y="159.3379">Component</text></g><!--class ScriptableObject--><g id="elem_ScriptableObject"><rect fill="#F1F1F1" height="32" id="ScriptableObject" rx="2.5" ry="2.5" style="stroke:#181818;stroke-width:0.5;" width="136" x="824.5" y="137.6094"/><ellipse cx="839.5" cy="153.6094" fill="#ADD1B2" rx="11" ry="11" style="stroke:#181818;stroke-width:1.0;"/><path d="M842.2656,149.4844 Q842.4219,149.2656 842.6094,149.1563 Q842.7969,149.0469 843.0156,149.0469 Q843.3906,149.0469 843.625,149.3125 Q843.8594,149.5625 843.8594,150.1719 L843.8594,151.625 Q843.8594,152.2344 843.625,152.5 Q843.3906,152.7656 843.0156,152.7656 Q842.6719,152.7656 842.4688,152.5625 Q842.2656,152.375 842.1563,151.8594 Q842.1094,151.5 841.9219,151.3125 Q841.5938,150.9375 840.9844,150.7188 Q840.375,150.5 839.75,150.5 Q838.9844,150.5 838.3438,150.8281 Q837.7188,151.1563 837.2188,151.9063 Q836.7344,152.6563 836.7344,153.6875 L836.7344,154.7813 Q836.7344,156.0156 837.625,156.8438 Q838.5156,157.6563 840.1094,157.6563 Q841.0469,157.6563 841.7031,157.4063 Q842.0938,157.25 842.5156,156.8125 Q842.7813,156.5469 842.9219,156.4688 Q843.0781,156.3906 843.2813,156.3906 Q843.6094,156.3906 843.8594,156.6563 Q844.125,156.9063 844.125,157.25 Q844.125,157.5938 843.7813,158 Q843.2813,158.5781 842.4844,158.9063 Q841.4063,159.3594 840.1094,159.3594 Q838.5938,159.3594 837.3906,158.7344 Q836.4063,158.2344 835.7188,157.1719 Q835.0313,156.0938 835.0313,154.8125 L835.0313,153.6563 Q835.0313,152.3281 835.6406,151.1875 Q836.2656,150.0313 837.3594,149.4219 Q838.4531,148.7969 839.6875,148.7969 Q840.4219,148.7969 841.0625,148.9688 Q841.7188,149.125 842.2656,149.4844 Z " fill="#000000"/><text fill="#000000" font-family="sans-serif" font-size="14" lengthAdjust="spacing" textLength="104" x="853.5" y="159.3379">ScriptableObject</text></g><!--class Behaviour--><g id="elem_Behaviour"><rect fill="#F1F1F1" height="32" id="Behaviour" rx="2.5" ry="2.5" style="stroke:#181818;stroke-width:0.5;" width="96" x="636.5" y="242.6094"/><ellipse cx="651.5" cy="258.6094" fill="#ADD1B2" rx="11" ry="11" style="stroke:#181818;stroke-width:1.0;"/><path d="M654.2656,254.4844 Q654.4219,254.2656 654.6094,254.1563 Q654.7969,254.0469 655.0156,254.0469 Q655.3906,254.0469 655.625,254.3125 Q655.8594,254.5625 655.8594,255.1719 L655.8594,256.625 Q655.8594,257.2344 655.625,257.5 Q655.3906,257.7656 655.0156,257.7656 Q654.6719,257.7656 654.4688,257.5625 Q654.2656,257.375 654.1563,256.8594 Q654.1094,256.5 653.9219,256.3125 Q653.5938,255.9375 652.9844,255.7188 Q652.375,255.5 651.75,255.5 Q650.9844,255.5 650.3438,255.8281 Q649.7188,256.1563 649.2188,256.9063 Q648.7344,257.6563 648.7344,258.6875 L648.7344,259.7813 Q648.7344,261.0156 649.625,261.8438 Q650.5156,262.6563 652.1094,262.6563 Q653.0469,262.6563 653.7031,262.4063 Q654.0938,262.25 654.5156,261.8125 Q654.7813,261.5469 654.9219,261.4688 Q655.0781,261.3906 655.2813,261.3906 Q655.6094,261.3906 655.8594,261.6563 Q656.125,261.9063 656.125,262.25 Q656.125,262.5938 655.7813,263 Q655.2813,263.5781 654.4844,263.9063 Q653.4063,264.3594 652.1094,264.3594 Q650.5938,264.3594 649.3906,263.7344 Q648.4063,263.2344 647.7188,262.1719 Q647.0313,261.0938 647.0313,259.8125 L647.0313,258.6563 Q647.0313,257.3281 647.6406,256.1875 Q648.2656,255.0313 649.3594,254.4219 Q650.4531,253.7969 651.6875,253.7969 Q652.4219,253.7969 653.0625,253.9688 Q653.7188,254.125 654.2656,254.4844 Z " fill="#000000"/><text fill="#000000" font-family="sans-serif" font-size="14" lengthAdjust="spacing" textLength="64" x="665.5" y="264.3379">Behaviour</text></g><!--class MonoBehaviour--><g id="elem_MonoBehaviour"><rect fill="#F1F1F1" height="32" id="MonoBehaviour" rx="2.5" ry="2.5" style="stroke:#181818;stroke-width:0.5;" width="131" x="596" y="347.6094"/><ellipse cx="611" cy="363.6094" fill="#ADD1B2" rx="11" ry="11" style="stroke:#181818;stroke-width:1.0;"/><path d="M613.7656,359.4844 Q613.9219,359.2656 614.1094,359.1563 Q614.2969,359.0469 614.5156,359.0469 Q614.8906,359.0469 615.125,359.3125 Q615.3594,359.5625 615.3594,360.1719 L615.3594,361.625 Q615.3594,362.2344 615.125,362.5 Q614.8906,362.7656 614.5156,362.7656 Q614.1719,362.7656 613.9688,362.5625 Q613.7656,362.375 613.6563,361.8594 Q613.6094,361.5 613.4219,361.3125 Q613.0938,360.9375 612.4844,360.7188 Q611.875,360.5 611.25,360.5 Q610.4844,360.5 609.8438,360.8281 Q609.2188,361.1563 608.7188,361.9063 Q608.2344,362.6563 608.2344,363.6875 L608.2344,364.7813 Q608.2344,366.0156 609.125,366.8438 Q610.0156,367.6563 611.6094,367.6563 Q612.5469,367.6563 613.2031,367.4063 Q613.5938,367.25 614.0156,366.8125 Q614.2813,366.5469 614.4219,366.4688 Q614.5781,366.3906 614.7813,366.3906 Q615.1094,366.3906 615.3594,366.6563 Q615.625,366.9063 615.625,367.25 Q615.625,367.5938 615.2813,368 Q614.7813,368.5781 613.9844,368.9063 Q612.9063,369.3594 611.6094,369.3594 Q610.0938,369.3594 608.8906,368.7344 Q607.9063,368.2344 607.2188,367.1719 Q606.5313,366.0938 606.5313,364.8125 L606.5313,363.6563 Q606.5313,362.3281 607.1406,361.1875 Q607.7656,360.0313 608.8594,359.4219 Q609.9531,358.7969 611.1875,358.7969 Q611.9219,358.7969 612.5625,358.9688 Q613.2188,359.125 613.7656,359.4844 Z " fill="#000000"/><text fill="#000000" font-family="sans-serif" font-size="14" lengthAdjust="spacing" textLength="99" x="625" y="369.3379">MonoBehaviour</text></g><!--class ImageSource--><g id="elem_ImageSource"><rect codeLine="46" fill="#F1F1F1" height="145.6563" id="ImageSource" rx="2.5" ry="2.5" style="stroke:#181818;stroke-width:0.5;" width="215" x="554" y="443.6094"/><ellipse cx="615.25" cy="459.6094" fill="#A9DCDF" rx="11" ry="11" style="stroke:#181818;stroke-width:1.0;"/><path d="M617.4375,461.375 L613.2969,461.375 L612.875,462.4063 L613.2969,462.4063 Q613.9063,462.4063 614.1719,462.6406 Q614.4375,462.875 614.4375,463.2656 Q614.4375,463.6406 614.1719,463.875 Q613.9063,464.1094 613.2969,464.1094 L611,464.1094 Q610.3906,464.1094 610.1406,463.875 Q609.875,463.6406 609.875,463.25 Q609.875,462.875 610.1563,462.6406 Q610.4219,462.3906 611.0469,462.4063 L613.7188,455.75 L612.6094,455.75 Q612,455.75 611.7344,455.5156 Q611.4688,455.2813 611.4688,454.8906 Q611.4688,454.5156 611.7344,454.2813 Q612,454.0469 612.6094,454.0469 L616.2813,454.0469 L619.6719,462.4063 Q620.2656,462.4063 620.4531,462.5469 Q620.8438,462.8125 620.8438,463.2656 Q620.8438,463.6406 620.5781,463.875 Q620.3281,464.1094 619.7188,464.1094 L617.4219,464.1094 Q616.8125,464.1094 616.5469,463.875 Q616.2813,463.6406 616.2813,463.25 Q616.2813,462.875 616.5469,462.6406 Q616.8125,462.4063 617.4219,462.4063 L617.8438,462.4063 L617.4375,461.375 Z M616.7188,459.6719 L615.3594,456.2969 L613.9844,459.6719 L616.7188,459.6719 Z " fill="#000000"/><text fill="#000000" font-family="sans-serif" font-size="14" font-style="italic" lengthAdjust="spacing" textLength="84" x="635.75" y="465.3379">ImageSource</text><line style="stroke:#181818;stroke-width:0.5;" x1="555" x2="768" y1="475.6094" y2="475.6094"/><ellipse cx="565" cy="489.9141" fill="#84BE84" rx="3" ry="3" style="stroke:#038048;stroke-width:1.0;"/><text fill="#000000" font-family="sans-serif" font-size="14" font-style="italic" lengthAdjust="spacing" textLength="131" x="574" y="494.1426">SelectSource() : void</text><ellipse cx="565" cy="507.5234" fill="#84BE84" rx="3" ry="3" style="stroke:#038048;stroke-width:1.0;"/><text fill="#000000" font-family="sans-serif" font-size="14" font-style="italic" lengthAdjust="spacing" textLength="127" x="574" y="511.752">Play() : IEnumerator</text><ellipse cx="565" cy="525.1328" fill="#84BE84" rx="3" ry="3" style="stroke:#038048;stroke-width:1.0;"/><text fill="#000000" font-family="sans-serif" font-size="14" font-style="italic" lengthAdjust="spacing" textLength="152" x="574" y="529.3613">Resume() : IEnumerator</text><ellipse cx="565" cy="542.7422" fill="#84BE84" rx="3" ry="3" style="stroke:#038048;stroke-width:1.0;"/><text fill="#000000" font-family="sans-serif" font-size="14" font-style="italic" lengthAdjust="spacing" textLength="87" x="574" y="546.9707">Pause() : void</text><ellipse cx="565" cy="560.3516" fill="#84BE84" rx="3" ry="3" style="stroke:#038048;stroke-width:1.0;"/><text fill="#000000" font-family="sans-serif" font-size="14" font-style="italic" lengthAdjust="spacing" textLength="76" x="574" y="564.5801">Stop() : void</text><ellipse cx="565" cy="577.9609" fill="#84BE84" rx="3" ry="3" style="stroke:#038048;stroke-width:1.0;"/><text fill="#000000" font-family="sans-serif" font-size="14" font-style="italic" lengthAdjust="spacing" textLength="189" x="574" y="582.1895">GetCurrentTexture() : Texture</text></g><!--class AnnotationController--><g id="elem_AnnotationController"><rect codeLine="15" fill="#F1F1F1" height="92.8281" id="AnnotationController" rx="2.5" ry="2.5" style="stroke:#181818;stroke-width:0.5;" width="162" x="226.5" y="692.6094"/><ellipse cx="241.5" cy="708.6094" fill="#A9DCDF" rx="11" ry="11" style="stroke:#181818;stroke-width:1.0;"/><path d="M243.6875,710.375 L239.5469,710.375 L239.125,711.4063 L239.5469,711.4063 Q240.1563,711.4063 240.4219,711.6406 Q240.6875,711.875 240.6875,712.2656 Q240.6875,712.6406 240.4219,712.875 Q240.1563,713.1094 239.5469,713.1094 L237.25,713.1094 Q236.6406,713.1094 236.3906,712.875 Q236.125,712.6406 236.125,712.25 Q236.125,711.875 236.4063,711.6406 Q236.6719,711.3906 237.2969,711.4063 L239.9688,704.75 L238.8594,704.75 Q238.25,704.75 237.9844,704.5156 Q237.7188,704.2813 237.7188,703.8906 Q237.7188,703.5156 237.9844,703.2813 Q238.25,703.0469 238.8594,703.0469 L242.5313,703.0469 L245.9219,711.4063 Q246.5156,711.4063 246.7031,711.5469 Q247.0938,711.8125 247.0938,712.2656 Q247.0938,712.6406 246.8281,712.875 Q246.5781,713.1094 245.9688,713.1094 L243.6719,713.1094 Q243.0625,713.1094 242.7969,712.875 Q242.5313,712.6406 242.5313,712.25 Q242.5313,711.875 242.7969,711.6406 Q243.0625,711.4063 243.6719,711.4063 L244.0938,711.4063 L243.6875,710.375 Z M242.9688,708.6719 L241.6094,705.2969 L240.2344,708.6719 L242.9688,708.6719 Z " fill="#000000"/><text fill="#000000" font-family="sans-serif" font-size="14" font-style="italic" lengthAdjust="spacing" textLength="130" x="255.5" y="714.3379">AnnotationController</text><line style="stroke:#181818;stroke-width:0.5;" x1="227.5" x2="387.5" y1="724.6094" y2="724.6094"/><polygon fill="#FFFF44" points="237.5,733.9141,241.5,737.9141,237.5,741.9141,233.5,737.9141" style="stroke:#B38D22;stroke-width:1.0;"/><text fill="#000000" font-family="sans-serif" font-size="14" lengthAdjust="spacing" textLength="78" x="246.5" y="743.1426">Start() : void</text><polygon fill="#FFFF44" points="237.5,751.5234,241.5,755.5234,237.5,759.5234,233.5,755.5234" style="stroke:#B38D22;stroke-width:1.0;"/><text fill="#000000" font-family="sans-serif" font-size="14" lengthAdjust="spacing" textLength="121" x="246.5" y="760.752">LateUpdate() : void</text><polygon fill="#FFFF44" points="237.5,769.1328,241.5,773.1328,237.5,777.1328,233.5,773.1328" style="stroke:#B38D22;stroke-width:1.0;"/><text fill="#000000" font-family="sans-serif" font-size="14" font-style="italic" lengthAdjust="spacing" textLength="105" x="246.5" y="778.3613">SyncNow() : void</text></g><!--class HandLandmarkerResultAnnotationController--><g id="elem_HandLandmarkerResultAnnotationController"><rect codeLine="23" fill="#F1F1F1" height="92.8281" id="HandLandmarkerResultAnnotationController" rx="2.5" ry="2.5" style="stroke:#181818;stroke-width:0.5;" width="311" x="77" y="1110.6094"/><ellipse cx="92" cy="1126.6094" fill="#ADD1B2" rx="11" ry="11" style="stroke:#181818;stroke-width:1.0;"/><path d="M94.7656,1122.4844 Q94.9219,1122.2656 95.1094,1122.1563 Q95.2969,1122.0469 95.5156,1122.0469 Q95.8906,1122.0469 96.125,1122.3125 Q96.3594,1122.5625 96.3594,1123.1719 L96.3594,1124.625 Q96.3594,1125.2344 96.125,1125.5 Q95.8906,1125.7656 95.5156,1125.7656 Q95.1719,1125.7656 94.9688,1125.5625 Q94.7656,1125.375 94.6563,1124.8594 Q94.6094,1124.5 94.4219,1124.3125 Q94.0938,1123.9375 93.4844,1123.7188 Q92.875,1123.5 92.25,1123.5 Q91.4844,1123.5 90.8438,1123.8281 Q90.2188,1124.1563 89.7188,1124.9063 Q89.2344,1125.6563 89.2344,1126.6875 L89.2344,1127.7813 Q89.2344,1129.0156 90.125,1129.8438 Q91.0156,1130.6563 92.6094,1130.6563 Q93.5469,1130.6563 94.2031,1130.4063 Q94.5938,1130.25 95.0156,1129.8125 Q95.2813,1129.5469 95.4219,1129.4688 Q95.5781,1129.3906 95.7813,1129.3906 Q96.1094,1129.3906 96.3594,1129.6563 Q96.625,1129.9063 96.625,1130.25 Q96.625,1130.5938 96.2813,1131 Q95.7813,1131.5781 94.9844,1131.9063 Q93.9063,1132.3594 92.6094,1132.3594 Q91.0938,1132.3594 89.8906,1131.7344 Q88.9063,1131.2344 88.2188,1130.1719 Q87.5313,1129.0938 87.5313,1127.8125 L87.5313,1126.6563 Q87.5313,1125.3281 88.1406,1124.1875 Q88.7656,1123.0313 89.8594,1122.4219 Q90.9531,1121.7969 92.1875,1121.7969 Q92.9219,1121.7969 93.5625,1121.9688 Q94.2188,1122.125 94.7656,1122.4844 Z " fill="#000000"/><text fill="#000000" font-family="sans-serif" font-size="14" lengthAdjust="spacing" textLength="279" x="106" y="1132.3379">HandLandmarkerResultAnnotationController</text><line style="stroke:#181818;stroke-width:0.5;" x1="78" x2="387" y1="1142.6094" y2="1142.6094"/><ellipse cx="88" cy="1156.9141" fill="#84BE84" rx="3" ry="3" style="stroke:#038048;stroke-width:1.0;"/><text fill="#000000" font-family="sans-serif" font-size="14" lengthAdjust="spacing" textLength="113" x="97" y="1161.1426">DrawLater() : void</text><polygon fill="#FFFF44" points="88,1169.5234,92,1173.5234,88,1177.5234,84,1173.5234" style="stroke:#B38D22;stroke-width:1.0;"/><text fill="#000000" font-family="sans-serif" font-size="14" lengthAdjust="spacing" textLength="183" x="97" y="1178.752">UpdateCurrentTarget() : void</text><polygon fill="#FFFF44" points="88,1187.1328,92,1191.1328,88,1195.1328,84,1191.1328" style="stroke:#B38D22;stroke-width:1.0;"/><text fill="#000000" font-family="sans-serif" font-size="14" lengthAdjust="spacing" textLength="105" x="97" y="1196.3613">SyncNow() : void</text></g><!--class HierarchicalAnnotation--><g id="elem_HierarchicalAnnotation"><rect codeLine="34" fill="#F1F1F1" height="32" id="HierarchicalAnnotation" rx="2.5" ry="2.5" style="stroke:#181818;stroke-width:0.5;" width="175" x="63" y="500.6094"/><ellipse cx="78" cy="516.6094" fill="#A9DCDF" rx="11" ry="11" style="stroke:#181818;stroke-width:1.0;"/><path d="M80.1875,518.375 L76.0469,518.375 L75.625,519.4063 L76.0469,519.4063 Q76.6563,519.4063 76.9219,519.6406 Q77.1875,519.875 77.1875,520.2656 Q77.1875,520.6406 76.9219,520.875 Q76.6563,521.1094 76.0469,521.1094 L73.75,521.1094 Q73.1406,521.1094 72.8906,520.875 Q72.625,520.6406 72.625,520.25 Q72.625,519.875 72.9063,519.6406 Q73.1719,519.3906 73.7969,519.4063 L76.4688,512.75 L75.3594,512.75 Q74.75,512.75 74.4844,512.5156 Q74.2188,512.2813 74.2188,511.8906 Q74.2188,511.5156 74.4844,511.2813 Q74.75,511.0469 75.3594,511.0469 L79.0313,511.0469 L82.4219,519.4063 Q83.0156,519.4063 83.2031,519.5469 Q83.5938,519.8125 83.5938,520.2656 Q83.5938,520.6406 83.3281,520.875 Q83.0781,521.1094 82.4688,521.1094 L80.1719,521.1094 Q79.5625,521.1094 79.2969,520.875 Q79.0313,520.6406 79.0313,520.25 Q79.0313,519.875 79.2969,519.6406 Q79.5625,519.4063 80.1719,519.4063 L80.5938,519.4063 L80.1875,518.375 Z M79.4688,516.6719 L78.1094,513.2969 L76.7344,516.6719 L79.4688,516.6719 Z " fill="#000000"/><text fill="#000000" font-family="sans-serif" font-size="14" font-style="italic" lengthAdjust="spacing" textLength="143" x="92" y="522.3379">HierarchicalAnnotation</text></g><!--class IHierachicalAnnotation--><g id="elem_IHierachicalAnnotation"><rect codeLine="32" fill="#F1F1F1" height="32" id="IHierachicalAnnotation" rx="2.5" ry="2.5" style="stroke:#181818;stroke-width:0.5;" width="174" x="63.5" y="347.6094"/><ellipse cx="78.5" cy="363.6094" fill="#B4A7E5" rx="11" ry="11" style="stroke:#181818;stroke-width:1.0;"/><path d="M79.4531,360.25 L79.4531,366.9063 L81.1719,366.9063 Q81.7813,366.9063 82.0469,367.1406 Q82.3125,367.375 82.3125,367.7656 Q82.3125,368.1406 82.0469,368.375 Q81.7813,368.6094 81.1719,368.6094 L76.0313,368.6094 Q75.4219,368.6094 75.1563,368.375 Q74.8906,368.1406 74.8906,367.75 Q74.8906,367.375 75.1563,367.1406 Q75.4219,366.9063 76.0313,366.9063 L77.75,366.9063 L77.75,360.25 L76.0313,360.25 Q75.4219,360.25 75.1563,360.0156 Q74.8906,359.7813 74.8906,359.3906 Q74.8906,359.0156 75.1563,358.7813 Q75.4219,358.5469 76.0313,358.5469 L81.1719,358.5469 Q81.7813,358.5469 82.0469,358.7813 Q82.3125,359.0156 82.3125,359.3906 Q82.3125,359.7813 82.0469,360.0156 Q81.7813,360.25 81.1719,360.25 L79.4531,360.25 Z " fill="#000000"/><text fill="#000000" font-family="sans-serif" font-size="14" font-style="italic" lengthAdjust="spacing" textLength="142" x="92.5" y="369.3379">IHierachicalAnnotation</text></g><!--class ListAnnotation--><g id="elem_ListAnnotation"><rect codeLine="38" fill="#F1F1F1" height="32" id="ListAnnotation" rx="2.5" ry="2.5" style="stroke:#181818;stroke-width:0.5;" width="122" x="69.5" y="723.1094"/><ellipse cx="84.5" cy="739.1094" fill="#A9DCDF" rx="11" ry="11" style="stroke:#181818;stroke-width:1.0;"/><path d="M86.6875,740.875 L82.5469,740.875 L82.125,741.9063 L82.5469,741.9063 Q83.1563,741.9063 83.4219,742.1406 Q83.6875,742.375 83.6875,742.7656 Q83.6875,743.1406 83.4219,743.375 Q83.1563,743.6094 82.5469,743.6094 L80.25,743.6094 Q79.6406,743.6094 79.3906,743.375 Q79.125,743.1406 79.125,742.75 Q79.125,742.375 79.4063,742.1406 Q79.6719,741.8906 80.2969,741.9063 L82.9688,735.25 L81.8594,735.25 Q81.25,735.25 80.9844,735.0156 Q80.7188,734.7813 80.7188,734.3906 Q80.7188,734.0156 80.9844,733.7813 Q81.25,733.5469 81.8594,733.5469 L85.5313,733.5469 L88.9219,741.9063 Q89.5156,741.9063 89.7031,742.0469 Q90.0938,742.3125 90.0938,742.7656 Q90.0938,743.1406 89.8281,743.375 Q89.5781,743.6094 88.9688,743.6094 L86.6719,743.6094 Q86.0625,743.6094 85.7969,743.375 Q85.5313,743.1406 85.5313,742.75 Q85.5313,742.375 85.7969,742.1406 Q86.0625,741.9063 86.6719,741.9063 L87.0938,741.9063 L86.6875,740.875 Z M85.9688,739.1719 L84.6094,735.7969 L83.2344,739.1719 L85.9688,739.1719 Z " fill="#000000"/><text fill="#000000" font-family="sans-serif" font-size="14" font-style="italic" lengthAdjust="spacing" textLength="90" x="98.5" y="744.8379">ListAnnotation</text></g><!--class MultiHandLandmarkListAnnotation--><g id="elem_MultiHandLandmarkListAnnotation"><rect codeLine="42" fill="#F1F1F1" height="57.6094" id="MultiHandLandmarkListAnnotation" rx="2.5" ry="2.5" style="stroke:#181818;stroke-width:0.5;" width="247" x="7" y="914.6094"/><ellipse cx="22" cy="930.6094" fill="#ADD1B2" rx="11" ry="11" style="stroke:#181818;stroke-width:1.0;"/><path d="M24.7656,926.4844 Q24.9219,926.2656 25.1094,926.1563 Q25.2969,926.0469 25.5156,926.0469 Q25.8906,926.0469 26.125,926.3125 Q26.3594,926.5625 26.3594,927.1719 L26.3594,928.625 Q26.3594,929.2344 26.125,929.5 Q25.8906,929.7656 25.5156,929.7656 Q25.1719,929.7656 24.9688,929.5625 Q24.7656,929.375 24.6563,928.8594 Q24.6094,928.5 24.4219,928.3125 Q24.0938,927.9375 23.4844,927.7188 Q22.875,927.5 22.25,927.5 Q21.4844,927.5 20.8438,927.8281 Q20.2188,928.1563 19.7188,928.9063 Q19.2344,929.6563 19.2344,930.6875 L19.2344,931.7813 Q19.2344,933.0156 20.125,933.8438 Q21.0156,934.6563 22.6094,934.6563 Q23.5469,934.6563 24.2031,934.4063 Q24.5938,934.25 25.0156,933.8125 Q25.2813,933.5469 25.4219,933.4688 Q25.5781,933.3906 25.7813,933.3906 Q26.1094,933.3906 26.3594,933.6563 Q26.625,933.9063 26.625,934.25 Q26.625,934.5938 26.2813,935 Q25.7813,935.5781 24.9844,935.9063 Q23.9063,936.3594 22.6094,936.3594 Q21.0938,936.3594 19.8906,935.7344 Q18.9063,935.2344 18.2188,934.1719 Q17.5313,933.0938 17.5313,931.8125 L17.5313,930.6563 Q17.5313,929.3281 18.1406,928.1875 Q18.7656,927.0313 19.8594,926.4219 Q20.9531,925.7969 22.1875,925.7969 Q22.9219,925.7969 23.5625,925.9688 Q24.2188,926.125 24.7656,926.4844 Z " fill="#000000"/><text fill="#000000" font-family="sans-serif" font-size="14" lengthAdjust="spacing" textLength="215" x="36" y="936.3379">MultiHandLandmarkListAnnotation</text><line style="stroke:#181818;stroke-width:0.5;" x1="8" x2="253" y1="946.6094" y2="946.6094"/><ellipse cx="18" cy="960.9141" fill="#84BE84" rx="3" ry="3" style="stroke:#038048;stroke-width:1.0;"/><text fill="#000000" font-family="sans-serif" font-size="14" lengthAdjust="spacing" textLength="80" x="27" y="965.1426">Draw() : void</text></g><!--class WebCamSource--><g id="elem_WebCamSource"><rect codeLine="57" fill="#F1F1F1" height="171.2656" id="WebCamSource" rx="2.5" ry="2.5" style="stroke:#181818;stroke-width:0.5;" width="254" x="512.5" y="653.6094"/><ellipse cx="583.75" cy="669.6094" fill="#ADD1B2" rx="11" ry="11" style="stroke:#181818;stroke-width:1.0;"/><path d="M586.5156,665.4844 Q586.6719,665.2656 586.8594,665.1563 Q587.0469,665.0469 587.2656,665.0469 Q587.6406,665.0469 587.875,665.3125 Q588.1094,665.5625 588.1094,666.1719 L588.1094,667.625 Q588.1094,668.2344 587.875,668.5 Q587.6406,668.7656 587.2656,668.7656 Q586.9219,668.7656 586.7188,668.5625 Q586.5156,668.375 586.4063,667.8594 Q586.3594,667.5 586.1719,667.3125 Q585.8438,666.9375 585.2344,666.7188 Q584.625,666.5 584,666.5 Q583.2344,666.5 582.5938,666.8281 Q581.9688,667.1563 581.4688,667.9063 Q580.9844,668.6563 580.9844,669.6875 L580.9844,670.7813 Q580.9844,672.0156 581.875,672.8438 Q582.7656,673.6563 584.3594,673.6563 Q585.2969,673.6563 585.9531,673.4063 Q586.3438,673.25 586.7656,672.8125 Q587.0313,672.5469 587.1719,672.4688 Q587.3281,672.3906 587.5313,672.3906 Q587.8594,672.3906 588.1094,672.6563 Q588.375,672.9063 588.375,673.25 Q588.375,673.5938 588.0313,674 Q587.5313,674.5781 586.7344,674.9063 Q585.6563,675.3594 584.3594,675.3594 Q582.8438,675.3594 581.6406,674.7344 Q580.6563,674.2344 579.9688,673.1719 Q579.2813,672.0938 579.2813,670.8125 L579.2813,669.6563 Q579.2813,668.3281 579.8906,667.1875 Q580.5156,666.0313 581.6094,665.4219 Q582.7031,664.7969 583.9375,664.7969 Q584.6719,664.7969 585.3125,664.9688 Q585.9688,665.125 586.5156,665.4844 Z " fill="#000000"/><text fill="#000000" font-family="sans-serif" font-size="14" lengthAdjust="spacing" textLength="103" x="604.25" y="675.3379">WebCamSource</text><line style="stroke:#181818;stroke-width:0.5;" x1="513.5" x2="765.5" y1="685.6094" y2="685.6094"/><rect fill="none" height="6" style="stroke:#C82930;stroke-width:1.0;" width="6" x="520.5" y="696.9141"/><text fill="#000000" font-family="sans-serif" font-size="14" lengthAdjust="spacing" textLength="228" x="532.5" y="704.1426">_webCamTexture : WebCamTexture</text><line style="stroke:#181818;stroke-width:0.5;" x1="513.5" x2="765.5" y1="711.2188" y2="711.2188"/><ellipse cx="523.5" cy="725.5234" fill="#84BE84" rx="3" ry="3" style="stroke:#038048;stroke-width:1.0;"/><text fill="#000000" font-family="sans-serif" font-size="14" lengthAdjust="spacing" textLength="132" x="532.5" y="729.752">SelectSource() : void</text><ellipse cx="523.5" cy="743.1328" fill="#84BE84" rx="3" ry="3" style="stroke:#038048;stroke-width:1.0;"/><text fill="#000000" font-family="sans-serif" font-size="14" lengthAdjust="spacing" textLength="126" x="532.5" y="747.3613">Play() : IEnumerator</text><ellipse cx="523.5" cy="760.7422" fill="#84BE84" rx="3" ry="3" style="stroke:#038048;stroke-width:1.0;"/><text fill="#000000" font-family="sans-serif" font-size="14" lengthAdjust="spacing" textLength="151" x="532.5" y="764.9707">Resume() : IEnumerator</text><ellipse cx="523.5" cy="778.3516" fill="#84BE84" rx="3" ry="3" style="stroke:#038048;stroke-width:1.0;"/><text fill="#000000" font-family="sans-serif" font-size="14" lengthAdjust="spacing" textLength="88" x="532.5" y="782.5801">Pause() : void</text><ellipse cx="523.5" cy="795.9609" fill="#84BE84" rx="3" ry="3" style="stroke:#038048;stroke-width:1.0;"/><text fill="#000000" font-family="sans-serif" font-size="14" lengthAdjust="spacing" textLength="77" x="532.5" y="800.1895">Stop() : void</text><ellipse cx="523.5" cy="813.5703" fill="#84BE84" rx="3" ry="3" style="stroke:#038048;stroke-width:1.0;"/><text fill="#000000" font-family="sans-serif" font-size="14" lengthAdjust="spacing" textLength="189" x="532.5" y="817.7988">GetCurrentTexture() : Texture</text></g><!--class IDisposable--><g id="elem_IDisposable"><rect codeLine="67" fill="#F1F1F1" height="32" id="IDisposable" rx="2.5" ry="2.5" style="stroke:#181818;stroke-width:0.5;" width="106" x="1494.5" y="927.6094"/><ellipse cx="1509.5" cy="943.6094" fill="#B4A7E5" rx="11" ry="11" style="stroke:#181818;stroke-width:1.0;"/><path d="M1510.4531,940.25 L1510.4531,946.9063 L1512.1719,946.9063 Q1512.7813,946.9063 1513.0469,947.1406 Q1513.3125,947.375 1513.3125,947.7656 Q1513.3125,948.1406 1513.0469,948.375 Q1512.7813,948.6094 1512.1719,948.6094 L1507.0313,948.6094 Q1506.4219,948.6094 1506.1563,948.375 Q1505.8906,948.1406 1505.8906,947.75 Q1505.8906,947.375 1506.1563,947.1406 Q1506.4219,946.9063 1507.0313,946.9063 L1508.75,946.9063 L1508.75,940.25 L1507.0313,940.25 Q1506.4219,940.25 1506.1563,940.0156 Q1505.8906,939.7813 1505.8906,939.3906 Q1505.8906,939.0156 1506.1563,938.7813 Q1506.4219,938.5469 1507.0313,938.5469 L1512.1719,938.5469 Q1512.7813,938.5469 1513.0469,938.7813 Q1513.3125,939.0156 1513.3125,939.3906 Q1513.3125,939.7813 1513.0469,940.0156 Q1512.7813,940.25 1512.1719,940.25 L1510.4531,940.25 Z " fill="#000000"/><text fill="#000000" font-family="sans-serif" font-size="14" font-style="italic" lengthAdjust="spacing" textLength="74" x="1523.5" y="949.3379">IDisposable</text></g><!--class BaseVisionTaskApi--><g id="elem_BaseVisionTaskApi"><rect codeLine="165" fill="#F1F1F1" height="57.6094" id="BaseVisionTaskApi" rx="2.5" ry="2.5" style="stroke:#181818;stroke-width:0.5;" width="208" x="1338.5" y="1128.1094"/><ellipse cx="1378.25" cy="1144.1094" fill="#ADD1B2" rx="11" ry="11" style="stroke:#181818;stroke-width:1.0;"/><path d="M1381.0156,1139.9844 Q1381.1719,1139.7656 1381.3594,1139.6563 Q1381.5469,1139.5469 1381.7656,1139.5469 Q1382.1406,1139.5469 1382.375,1139.8125 Q1382.6094,1140.0625 1382.6094,1140.6719 L1382.6094,1142.125 Q1382.6094,1142.7344 1382.375,1143 Q1382.1406,1143.2656 1381.7656,1143.2656 Q1381.4219,1143.2656 1381.2188,1143.0625 Q1381.0156,1142.875 1380.9063,1142.3594 Q1380.8594,1142 1380.6719,1141.8125 Q1380.3438,1141.4375 1379.7344,1141.2188 Q1379.125,1141 1378.5,1141 Q1377.7344,1141 1377.0938,1141.3281 Q1376.4688,1141.6563 1375.9688,1142.4063 Q1375.4844,1143.1563 1375.4844,1144.1875 L1375.4844,1145.2813 Q1375.4844,1146.5156 1376.375,1147.3438 Q1377.2656,1148.1563 1378.8594,1148.1563 Q1379.7969,1148.1563 1380.4531,1147.9063 Q1380.8438,1147.75 1381.2656,1147.3125 Q1381.5313,1147.0469 1381.6719,1146.9688 Q1381.8281,1146.8906 1382.0313,1146.8906 Q1382.3594,1146.8906 1382.6094,1147.1563 Q1382.875,1147.4063 1382.875,1147.75 Q1382.875,1148.0938 1382.5313,1148.5 Q1382.0313,1149.0781 1381.2344,1149.4063 Q1380.1563,1149.8594 1378.8594,1149.8594 Q1377.3438,1149.8594 1376.1406,1149.2344 Q1375.1563,1148.7344 1374.4688,1147.6719 Q1373.7813,1146.5938 1373.7813,1145.3125 L1373.7813,1144.1563 Q1373.7813,1142.8281 1374.3906,1141.6875 Q1375.0156,1140.5313 1376.1094,1139.9219 Q1377.2031,1139.2969 1378.4375,1139.2969 Q1379.1719,1139.2969 1379.8125,1139.4688 Q1380.4688,1139.625 1381.0156,1139.9844 Z " fill="#000000"/><text fill="#000000" font-family="sans-serif" font-size="14" lengthAdjust="spacing" textLength="121" x="1397.75" y="1149.8379">BaseVisionTaskApi</text><line style="stroke:#181818;stroke-width:0.5;" x1="1339.5" x2="1545.5" y1="1160.1094" y2="1160.1094"/><polygon fill="#FFFF44" points="1349.5,1169.4141,1353.5,1173.4141,1349.5,1177.4141,1345.5,1173.4141" style="stroke:#B38D22;stroke-width:1.0;"/><text fill="#000000" font-family="sans-serif" font-size="14" lengthAdjust="spacing" textLength="182" x="1358.5" y="1178.6426">SendLiveStreamData() : void</text></g><!--class BaseRunner--><g id="elem_BaseRunner"><rect codeLine="73" fill="#F1F1F1" height="241.7031" id="BaseRunner" rx="2.5" ry="2.5" style="stroke:#181818;stroke-width:0.5;" width="260" x="684.5" y="1311.6094"/><ellipse cx="770.75" cy="1327.6094" fill="#A9DCDF" rx="11" ry="11" style="stroke:#181818;stroke-width:1.0;"/><path d="M772.9375,1329.375 L768.7969,1329.375 L768.375,1330.4063 L768.7969,1330.4063 Q769.4063,1330.4063 769.6719,1330.6406 Q769.9375,1330.875 769.9375,1331.2656 Q769.9375,1331.6406 769.6719,1331.875 Q769.4063,1332.1094 768.7969,1332.1094 L766.5,1332.1094 Q765.8906,1332.1094 765.6406,1331.875 Q765.375,1331.6406 765.375,1331.25 Q765.375,1330.875 765.6563,1330.6406 Q765.9219,1330.3906 766.5469,1330.4063 L769.2188,1323.75 L768.1094,1323.75 Q767.5,1323.75 767.2344,1323.5156 Q766.9688,1323.2813 766.9688,1322.8906 Q766.9688,1322.5156 767.2344,1322.2813 Q767.5,1322.0469 768.1094,1322.0469 L771.7813,1322.0469 L775.1719,1330.4063 Q775.7656,1330.4063 775.9531,1330.5469 Q776.3438,1330.8125 776.3438,1331.2656 Q776.3438,1331.6406 776.0781,1331.875 Q775.8281,1332.1094 775.2188,1332.1094 L772.9219,1332.1094 Q772.3125,1332.1094 772.0469,1331.875 Q771.7813,1331.6406 771.7813,1331.25 Q771.7813,1330.875 772.0469,1330.6406 Q772.3125,1330.4063 772.9219,1330.4063 L773.3438,1330.4063 L772.9375,1329.375 Z M772.2188,1327.6719 L770.8594,1324.2969 L769.4844,1327.6719 L772.2188,1327.6719 Z " fill="#000000"/><text fill="#000000" font-family="sans-serif" font-size="14" font-style="italic" lengthAdjust="spacing" textLength="79" x="791.25" y="1333.3379">BaseRunner</text><line style="stroke:#181818;stroke-width:0.5;" x1="685.5" x2="943.5" y1="1343.6094" y2="1343.6094"/><rect fill="none" height="6" style="stroke:#C82930;stroke-width:1.0;" width="6" x="692.5" y="1354.9141"/><text fill="#000000" font-family="sans-serif" font-size="14" lengthAdjust="spacing" textLength="152" x="704.5" y="1362.1426">_BootstrapName : string</text><rect fill="none" height="6" style="stroke:#C82930;stroke-width:1.0;" width="6" x="692.5" y="1372.5234"/><text fill="#000000" font-family="sans-serif" font-size="14" lengthAdjust="spacing" textLength="201" x="704.5" y="1379.752">_bootstrapPrefab : GameObject</text><polygon fill="none" points="695.5,1388.1328,699.5,1392.1328,695.5,1396.1328,691.5,1392.1328" style="stroke:#B38D22;stroke-width:1.0;"/><text fill="#000000" font-family="sans-serif" font-size="14" lengthAdjust="spacing" textLength="133" x="704.5" y="1397.3613">bootstrap : Bootstrap</text><polygon fill="none" points="695.5,1405.7422,699.5,1409.7422,695.5,1413.7422,691.5,1409.7422" style="stroke:#B38D22;stroke-width:1.0;"/><text fill="#000000" font-family="sans-serif" font-size="14" lengthAdjust="spacing" textLength="97" x="704.5" y="1414.9707">isPaused : bool</text><line style="stroke:#181818;stroke-width:0.5;" x1="685.5" x2="943.5" y1="1422.0469" y2="1422.0469"/><polygon fill="#FFFF44" points="695.5,1431.3516,699.5,1435.3516,695.5,1439.3516,691.5,1435.3516" style="stroke:#B38D22;stroke-width:1.0;"/><text fill="#000000" font-family="sans-serif" font-size="14" font-style="italic" lengthAdjust="spacing" textLength="130" x="704.5" y="1440.5801">Start() : IEnumerator</text><ellipse cx="695.5" cy="1453.9609" fill="#84BE84" rx="3" ry="3" style="stroke:#038048;stroke-width:1.0;"/><text fill="#000000" font-family="sans-serif" font-size="14" font-style="italic" lengthAdjust="spacing" textLength="74" x="704.5" y="1458.1895">Play() : void</text><ellipse cx="695.5" cy="1471.5703" fill="#84BE84" rx="3" ry="3" style="stroke:#038048;stroke-width:1.0;"/><text fill="#000000" font-family="sans-serif" font-size="14" font-style="italic" lengthAdjust="spacing" textLength="87" x="704.5" y="1475.7988">Pause() : void</text><ellipse cx="695.5" cy="1489.1797" fill="#84BE84" rx="3" ry="3" style="stroke:#038048;stroke-width:1.0;"/><text fill="#000000" font-family="sans-serif" font-size="14" font-style="italic" lengthAdjust="spacing" textLength="99" x="704.5" y="1493.4082">Resume() : void</text><ellipse cx="695.5" cy="1506.7891" fill="#84BE84" rx="3" ry="3" style="stroke:#038048;stroke-width:1.0;"/><text fill="#000000" font-family="sans-serif" font-size="14" font-style="italic" lengthAdjust="spacing" textLength="76" x="704.5" y="1511.0176">Stop() : void</text><polygon fill="#FFFF44" points="695.5,1519.3984,699.5,1523.3984,695.5,1527.3984,691.5,1523.3984" style="stroke:#B38D22;stroke-width:1.0;"/><text fill="#000000" font-family="sans-serif" font-size="14" lengthAdjust="spacing" textLength="234" x="704.5" y="1528.627">GetCurrentTimestampMillisec() : long</text><polygon fill="#FFFF44" points="695.5,1537.0078,699.5,1541.0078,695.5,1545.0078,691.5,1541.0078" style="stroke:#B38D22;stroke-width:1.0;"/><text fill="#000000" font-family="sans-serif" font-size="14" lengthAdjust="spacing" textLength="172" x="704.5" y="1546.2363">FindBootstrap() : Bootstrap</text></g><!--class Bootstrap--><g id="elem_Bootstrap"><rect codeLine="91" fill="#F1F1F1" height="188.875" id="Bootstrap" rx="2.5" ry="2.5" style="stroke:#181818;stroke-width:0.5;" width="226" x="867.5" y="1062.6094"/><ellipse cx="945.75" cy="1078.6094" fill="#ADD1B2" rx="11" ry="11" style="stroke:#181818;stroke-width:1.0;"/><path d="M948.5156,1074.4844 Q948.6719,1074.2656 948.8594,1074.1563 Q949.0469,1074.0469 949.2656,1074.0469 Q949.6406,1074.0469 949.875,1074.3125 Q950.1094,1074.5625 950.1094,1075.1719 L950.1094,1076.625 Q950.1094,1077.2344 949.875,1077.5 Q949.6406,1077.7656 949.2656,1077.7656 Q948.9219,1077.7656 948.7188,1077.5625 Q948.5156,1077.375 948.4063,1076.8594 Q948.3594,1076.5 948.1719,1076.3125 Q947.8438,1075.9375 947.2344,1075.7188 Q946.625,1075.5 946,1075.5 Q945.2344,1075.5 944.5938,1075.8281 Q943.9688,1076.1563 943.4688,1076.9063 Q942.9844,1077.6563 942.9844,1078.6875 L942.9844,1079.7813 Q942.9844,1081.0156 943.875,1081.8438 Q944.7656,1082.6563 946.3594,1082.6563 Q947.2969,1082.6563 947.9531,1082.4063 Q948.3438,1082.25 948.7656,1081.8125 Q949.0313,1081.5469 949.1719,1081.4688 Q949.3281,1081.3906 949.5313,1081.3906 Q949.8594,1081.3906 950.1094,1081.6563 Q950.375,1081.9063 950.375,1082.25 Q950.375,1082.5938 950.0313,1083 Q949.5313,1083.5781 948.7344,1083.9063 Q947.6563,1084.3594 946.3594,1084.3594 Q944.8438,1084.3594 943.6406,1083.7344 Q942.6563,1083.2344 941.9688,1082.1719 Q941.2813,1081.0938 941.2813,1079.8125 L941.2813,1078.6563 Q941.2813,1077.3281 941.8906,1076.1875 Q942.5156,1075.0313 943.6094,1074.4219 Q944.7031,1073.7969 945.9375,1073.7969 Q946.6719,1073.7969 947.3125,1073.9688 Q947.9688,1074.125 948.5156,1074.4844 Z " fill="#000000"/><text fill="#000000" font-family="sans-serif" font-size="14" lengthAdjust="spacing" textLength="61" x="966.25" y="1084.3379">Bootstrap</text><line style="stroke:#181818;stroke-width:0.5;" x1="868.5" x2="1092.5" y1="1094.6094" y2="1094.6094"/><rect fill="none" height="6" style="stroke:#C82930;stroke-width:1.0;" width="6" x="875.5" y="1105.9141"/><text fill="#000000" font-family="sans-serif" font-size="14" lengthAdjust="spacing" textLength="171" x="887.5" y="1113.1426">_appSettings : AppSettings</text><ellipse cx="878.5" cy="1126.5234" fill="none" rx="3" ry="3" style="stroke:#038048;stroke-width:1.0;"/><text fill="#000000" font-family="sans-serif" font-size="14" lengthAdjust="spacing" textLength="200" x="887.5" y="1130.752">inferenceMode : InferenceMode</text><ellipse cx="878.5" cy="1144.1328" fill="none" rx="3" ry="3" style="stroke:#038048;stroke-width:1.0;"/><text fill="#000000" font-family="sans-serif" font-size="14" lengthAdjust="spacing" textLength="103" x="887.5" y="1148.3613">isFinished : bool</text><rect fill="none" height="6" style="stroke:#C82930;stroke-width:1.0;" width="6" x="875.5" y="1158.7422"/><text fill="#000000" font-family="sans-serif" font-size="14" lengthAdjust="spacing" textLength="136" x="887.5" y="1165.9707">_isGlogInitialize : bool</text><line style="stroke:#181818;stroke-width:0.5;" x1="868.5" x2="1092.5" y1="1173.0469" y2="1173.0469"/><rect fill="#F24D5C" height="6" style="stroke:#C82930;stroke-width:1.0;" width="6" x="875.5" y="1184.3516"/><text fill="#000000" font-family="sans-serif" font-size="14" lengthAdjust="spacing" textLength="111" x="887.5" y="1191.5801">OnEnable() : void</text><rect fill="#F24D5C" height="6" style="stroke:#C82930;stroke-width:1.0;" width="6" x="875.5" y="1201.9609"/><text fill="#000000" font-family="sans-serif" font-size="14" lengthAdjust="spacing" textLength="117" x="887.5" y="1209.1895">Init() : IEnumerator</text><rect fill="#F24D5C" height="6" style="stroke:#C82930;stroke-width:1.0;" width="6" x="875.5" y="1219.5703"/><text fill="#000000" font-family="sans-serif" font-size="14" lengthAdjust="spacing" textLength="186" x="887.5" y="1226.7988">DecideInferenceMode() : void</text><rect fill="#F24D5C" height="6" style="stroke:#C82930;stroke-width:1.0;" width="6" x="875.5" y="1237.1797"/><text fill="#000000" font-family="sans-serif" font-size="14" lengthAdjust="spacing" textLength="162" x="887.5" y="1244.4082">OnApplicationQuit() : void</text></g><!--class ImageSourceProvider--><g id="elem_ImageSourceProvider"><rect codeLine="104" fill="#F1F1F1" height="118.4375" id="ImageSourceProvider" rx="2.5" ry="2.5" style="stroke:#181818;stroke-width:0.5;" width="278" x="494.5" y="884.6094"/><ellipse cx="561.25" cy="900.6094" fill="#ADD1B2" rx="11" ry="11" style="stroke:#181818;stroke-width:1.0;"/><path d="M564.0156,896.4844 Q564.1719,896.2656 564.3594,896.1563 Q564.5469,896.0469 564.7656,896.0469 Q565.1406,896.0469 565.375,896.3125 Q565.6094,896.5625 565.6094,897.1719 L565.6094,898.625 Q565.6094,899.2344 565.375,899.5 Q565.1406,899.7656 564.7656,899.7656 Q564.4219,899.7656 564.2188,899.5625 Q564.0156,899.375 563.9063,898.8594 Q563.8594,898.5 563.6719,898.3125 Q563.3438,897.9375 562.7344,897.7188 Q562.125,897.5 561.5,897.5 Q560.7344,897.5 560.0938,897.8281 Q559.4688,898.1563 558.9688,898.9063 Q558.4844,899.6563 558.4844,900.6875 L558.4844,901.7813 Q558.4844,903.0156 559.375,903.8438 Q560.2656,904.6563 561.8594,904.6563 Q562.7969,904.6563 563.4531,904.4063 Q563.8438,904.25 564.2656,903.8125 Q564.5313,903.5469 564.6719,903.4688 Q564.8281,903.3906 565.0313,903.3906 Q565.3594,903.3906 565.6094,903.6563 Q565.875,903.9063 565.875,904.25 Q565.875,904.5938 565.5313,905 Q565.0313,905.5781 564.2344,905.9063 Q563.1563,906.3594 561.8594,906.3594 Q560.3438,906.3594 559.1406,905.7344 Q558.1563,905.2344 557.4688,904.1719 Q556.7813,903.0938 556.7813,901.8125 L556.7813,900.6563 Q556.7813,899.3281 557.3906,898.1875 Q558.0156,897.0313 559.1094,896.4219 Q560.2031,895.7969 561.4375,895.7969 Q562.1719,895.7969 562.8125,895.9688 Q563.4688,896.125 564.0156,896.4844 Z " fill="#000000"/><text fill="#000000" font-family="sans-serif" font-size="14" lengthAdjust="spacing" textLength="136" x="581.75" y="906.3379">ImageSourceProvider</text><line style="stroke:#181818;stroke-width:0.5;" x1="495.5" x2="771.5" y1="916.6094" y2="916.6094"/><ellipse cx="505.5" cy="930.9141" fill="none" rx="3" ry="3" style="stroke:#038048;stroke-width:1.0;"/><text fill="#000000" font-family="sans-serif" font-size="14" lengthAdjust="spacing" text-decoration="underline" textLength="178" x="514.5" y="935.1426">ImageSource : ImageSource</text><ellipse cx="505.5" cy="948.5234" fill="none" rx="3" ry="3" style="stroke:#038048;stroke-width:1.0;"/><text fill="#000000" font-family="sans-serif" font-size="14" lengthAdjust="spacing" text-decoration="underline" textLength="252" x="514.5" y="952.752">CurrentSourceType : ImageSourceType</text><line style="stroke:#181818;stroke-width:0.5;" x1="495.5" x2="771.5" y1="959.8281" y2="959.8281"/><polygon fill="#4177AF" points="505.5,970.1328,501.5,976.1328,509.5,976.1328" style="stroke:#1963A0;stroke-width:1.0;"/><text fill="#000000" font-family="sans-serif" font-size="14" lengthAdjust="spacing" text-decoration="underline" textLength="97" x="514.5" y="978.3613">Initialize() : void</text><polygon fill="#4177AF" points="505.5,987.7422,501.5,993.7422,509.5,993.7422" style="stroke:#1963A0;stroke-width:1.0;"/><text fill="#000000" font-family="sans-serif" font-size="14" lengthAdjust="spacing" text-decoration="underline" textLength="88" x="514.5" y="995.9707">Switch() : void</text></g><!--class AppSettings--><g id="elem_AppSettings"><rect codeLine="114" fill="#F1F1F1" height="57.6094" id="AppSettings" rx="2.5" ry="2.5" style="stroke:#181818;stroke-width:0.5;" width="285" x="813" y="229.6094"/><ellipse cx="913.25" cy="245.6094" fill="#ADD1B2" rx="11" ry="11" style="stroke:#181818;stroke-width:1.0;"/><path d="M916.0156,241.4844 Q916.1719,241.2656 916.3594,241.1563 Q916.5469,241.0469 916.7656,241.0469 Q917.1406,241.0469 917.375,241.3125 Q917.6094,241.5625 917.6094,242.1719 L917.6094,243.625 Q917.6094,244.2344 917.375,244.5 Q917.1406,244.7656 916.7656,244.7656 Q916.4219,244.7656 916.2188,244.5625 Q916.0156,244.375 915.9063,243.8594 Q915.8594,243.5 915.6719,243.3125 Q915.3438,242.9375 914.7344,242.7188 Q914.125,242.5 913.5,242.5 Q912.7344,242.5 912.0938,242.8281 Q911.4688,243.1563 910.9688,243.9063 Q910.4844,244.6563 910.4844,245.6875 L910.4844,246.7813 Q910.4844,248.0156 911.375,248.8438 Q912.2656,249.6563 913.8594,249.6563 Q914.7969,249.6563 915.4531,249.4063 Q915.8438,249.25 916.2656,248.8125 Q916.5313,248.5469 916.6719,248.4688 Q916.8281,248.3906 917.0313,248.3906 Q917.3594,248.3906 917.6094,248.6563 Q917.875,248.9063 917.875,249.25 Q917.875,249.5938 917.5313,250 Q917.0313,250.5781 916.2344,250.9063 Q915.1563,251.3594 913.8594,251.3594 Q912.3438,251.3594 911.1406,250.7344 Q910.1563,250.2344 909.4688,249.1719 Q908.7813,248.0938 908.7813,246.8125 L908.7813,245.6563 Q908.7813,244.3281 909.3906,243.1875 Q910.0156,242.0313 911.1094,241.4219 Q912.2031,240.7969 913.4375,240.7969 Q914.1719,240.7969 914.8125,240.9688 Q915.4688,241.125 916.0156,241.4844 Z " fill="#000000"/><text fill="#000000" font-family="sans-serif" font-size="14" lengthAdjust="spacing" textLength="76" x="933.75" y="251.3379">AppSettings</text><line style="stroke:#181818;stroke-width:0.5;" x1="814" x2="1097" y1="261.6094" y2="261.6094"/><ellipse cx="824" cy="275.9141" fill="#84BE84" rx="3" ry="3" style="stroke:#038048;stroke-width:1.0;"/><text fill="#000000" font-family="sans-serif" font-size="14" lengthAdjust="spacing" textLength="259" x="833" y="280.1426">BuildWebCamSource() : WebCamSource</text></g><!--class Screen--><g id="elem_Screen"><rect codeLine="120" fill="#F1F1F1" height="153.6563" id="Screen" rx="2.5" ry="2.5" style="stroke:#181818;stroke-width:0.5;" width="154" x="364.5" y="439.6094"/><ellipse cx="414.75" cy="455.6094" fill="#ADD1B2" rx="11" ry="11" style="stroke:#181818;stroke-width:1.0;"/><path d="M417.5156,451.4844 Q417.6719,451.2656 417.8594,451.1563 Q418.0469,451.0469 418.2656,451.0469 Q418.6406,451.0469 418.875,451.3125 Q419.1094,451.5625 419.1094,452.1719 L419.1094,453.625 Q419.1094,454.2344 418.875,454.5 Q418.6406,454.7656 418.2656,454.7656 Q417.9219,454.7656 417.7188,454.5625 Q417.5156,454.375 417.4063,453.8594 Q417.3594,453.5 417.1719,453.3125 Q416.8438,452.9375 416.2344,452.7188 Q415.625,452.5 415,452.5 Q414.2344,452.5 413.5938,452.8281 Q412.9688,453.1563 412.4688,453.9063 Q411.9844,454.6563 411.9844,455.6875 L411.9844,456.7813 Q411.9844,458.0156 412.875,458.8438 Q413.7656,459.6563 415.3594,459.6563 Q416.2969,459.6563 416.9531,459.4063 Q417.3438,459.25 417.7656,458.8125 Q418.0313,458.5469 418.1719,458.4688 Q418.3281,458.3906 418.5313,458.3906 Q418.8594,458.3906 419.1094,458.6563 Q419.375,458.9063 419.375,459.25 Q419.375,459.5938 419.0313,460 Q418.5313,460.5781 417.7344,460.9063 Q416.6563,461.3594 415.3594,461.3594 Q413.8438,461.3594 412.6406,460.7344 Q411.6563,460.2344 410.9688,459.1719 Q410.2813,458.0938 410.2813,456.8125 L410.2813,455.6563 Q410.2813,454.3281 410.8906,453.1875 Q411.5156,452.0313 412.6094,451.4219 Q413.7031,450.7969 414.9375,450.7969 Q415.6719,450.7969 416.3125,450.9688 Q416.9688,451.125 417.5156,451.4844 Z " fill="#000000"/><text fill="#000000" font-family="sans-serif" font-size="14" lengthAdjust="spacing" textLength="45" x="435.25" y="461.3379">Screen</text><line style="stroke:#181818;stroke-width:0.5;" x1="365.5" x2="517.5" y1="471.6094" y2="471.6094"/><rect fill="none" height="6" style="stroke:#C82930;stroke-width:1.0;" width="6" x="372.5" y="482.9141"/><text fill="#000000" font-family="sans-serif" font-size="14" lengthAdjust="spacing" textLength="128" x="384.5" y="490.1426">_screen : RawImage</text><ellipse cx="375.5" cy="503.5234" fill="none" rx="3" ry="3" style="stroke:#038048;stroke-width:1.0;"/><text fill="#000000" font-family="sans-serif" font-size="14" lengthAdjust="spacing" textLength="103" x="384.5" y="507.752">texture : Texture</text><line style="stroke:#181818;stroke-width:0.5;" x1="365.5" x2="517.5" y1="514.8281" y2="514.8281"/><ellipse cx="375.5" cy="529.1328" fill="#84BE84" rx="3" ry="3" style="stroke:#038048;stroke-width:1.0;"/><text fill="#000000" font-family="sans-serif" font-size="14" lengthAdjust="spacing" textLength="97" x="384.5" y="533.3613">Initialize() : void</text><ellipse cx="375.5" cy="546.7422" fill="#84BE84" rx="3" ry="3" style="stroke:#038048;stroke-width:1.0;"/><text fill="#000000" font-family="sans-serif" font-size="14" lengthAdjust="spacing" textLength="90" x="384.5" y="550.9707">Resize() : void</text><ellipse cx="375.5" cy="564.3516" fill="#84BE84" rx="3" ry="3" style="stroke:#038048;stroke-width:1.0;"/><text fill="#000000" font-family="sans-serif" font-size="14" lengthAdjust="spacing" textLength="90" x="384.5" y="568.5801">Rotate() : void</text><ellipse cx="375.5" cy="581.9609" fill="#84BE84" rx="3" ry="3" style="stroke:#038048;stroke-width:1.0;"/><text fill="#000000" font-family="sans-serif" font-size="14" lengthAdjust="spacing" textLength="113" x="384.5" y="586.1895">ReadSync() : void</text></g><!--class VisionTaskApiRunner--><g id="elem_VisionTaskApiRunner"><rect codeLine="169" fill="#F1F1F1" height="188.875" id="VisionTaskApiRunner" rx="2.5" ry="2.5" style="stroke:#181818;stroke-width:0.5;" width="241" x="694" y="1613.6094"/><ellipse cx="741.75" cy="1629.6094" fill="#A9DCDF" rx="11" ry="11" style="stroke:#181818;stroke-width:1.0;"/><path d="M743.9375,1631.375 L739.7969,1631.375 L739.375,1632.4063 L739.7969,1632.4063 Q740.4063,1632.4063 740.6719,1632.6406 Q740.9375,1632.875 740.9375,1633.2656 Q740.9375,1633.6406 740.6719,1633.875 Q740.4063,1634.1094 739.7969,1634.1094 L737.5,1634.1094 Q736.8906,1634.1094 736.6406,1633.875 Q736.375,1633.6406 736.375,1633.25 Q736.375,1632.875 736.6563,1632.6406 Q736.9219,1632.3906 737.5469,1632.4063 L740.2188,1625.75 L739.1094,1625.75 Q738.5,1625.75 738.2344,1625.5156 Q737.9688,1625.2813 737.9688,1624.8906 Q737.9688,1624.5156 738.2344,1624.2813 Q738.5,1624.0469 739.1094,1624.0469 L742.7813,1624.0469 L746.1719,1632.4063 Q746.7656,1632.4063 746.9531,1632.5469 Q747.3438,1632.8125 747.3438,1633.2656 Q747.3438,1633.6406 747.0781,1633.875 Q746.8281,1634.1094 746.2188,1634.1094 L743.9219,1634.1094 Q743.3125,1634.1094 743.0469,1633.875 Q742.7813,1633.6406 742.7813,1633.25 Q742.7813,1632.875 743.0469,1632.6406 Q743.3125,1632.4063 743.9219,1632.4063 L744.3438,1632.4063 L743.9375,1631.375 Z M743.2188,1629.6719 L741.8594,1626.2969 L740.4844,1629.6719 L743.2188,1629.6719 Z " fill="#000000"/><text fill="#000000" font-family="sans-serif" font-size="14" font-style="italic" lengthAdjust="spacing" textLength="137" x="762.25" y="1635.3379">VisionTaskApiRunner</text><line style="stroke:#181818;stroke-width:0.5;" x1="695" x2="934" y1="1645.6094" y2="1645.6094"/><polygon fill="none" points="705,1654.9141,709,1658.9141,705,1662.9141,701,1658.9141" style="stroke:#B38D22;stroke-width:1.0;"/><text fill="#000000" font-family="sans-serif" font-size="14" lengthAdjust="spacing" textLength="100" x="714" y="1664.1426">screen : Screen</text><ellipse cx="705" cy="1677.5234" fill="none" rx="3" ry="3" style="stroke:#038048;stroke-width:1.0;"/><text fill="#000000" font-family="sans-serif" font-size="14" lengthAdjust="spacing" textLength="183" x="714" y="1681.752">runningMode : RunningMode</text><line style="stroke:#181818;stroke-width:0.5;" x1="695" x2="934" y1="1688.8281" y2="1688.8281"/><ellipse cx="705" cy="1703.1328" fill="#84BE84" rx="3" ry="3" style="stroke:#038048;stroke-width:1.0;"/><text fill="#000000" font-family="sans-serif" font-size="14" lengthAdjust="spacing" textLength="75" x="714" y="1707.3613">Play() : void</text><ellipse cx="705" cy="1720.7422" fill="#84BE84" rx="3" ry="3" style="stroke:#038048;stroke-width:1.0;"/><text fill="#000000" font-family="sans-serif" font-size="14" lengthAdjust="spacing" textLength="88" x="714" y="1724.9707">Pause() : void</text><ellipse cx="705" cy="1738.3516" fill="#84BE84" rx="3" ry="3" style="stroke:#038048;stroke-width:1.0;"/><text fill="#000000" font-family="sans-serif" font-size="14" lengthAdjust="spacing" textLength="100" x="714" y="1742.5801">Resume() : void</text><ellipse cx="705" cy="1755.9609" fill="#84BE84" rx="3" ry="3" style="stroke:#038048;stroke-width:1.0;"/><text fill="#000000" font-family="sans-serif" font-size="14" lengthAdjust="spacing" textLength="77" x="714" y="1760.1895">Stop() : void</text><polygon fill="#FFFF44" points="705,1768.5703,709,1772.5703,705,1776.5703,701,1772.5703" style="stroke:#B38D22;stroke-width:1.0;"/><text fill="#000000" font-family="sans-serif" font-size="14" font-style="italic" lengthAdjust="spacing" textLength="126" x="714" y="1777.7988">Run() : IEnumerator</text><polygon fill="#FFFF44" points="705,1786.1797,709,1790.1797,705,1794.1797,701,1790.1797" style="stroke:#B38D22;stroke-width:1.0;"/><text fill="#000000" font-family="sans-serif" font-size="14" lengthAdjust="spacing" textLength="215" x="714" y="1795.4082">SetupAnnotationController() : void</text></g><!--class HandLandmarker--><g id="elem_HandLandmarker"><rect codeLine="191" fill="#F1F1F1" height="110.4375" id="HandLandmarker" rx="2.5" ry="2.5" style="stroke:#181818;stroke-width:0.5;" width="446" x="979.5" y="1377.6094"/><ellipse cx="1143.75" cy="1393.6094" fill="#ADD1B2" rx="11" ry="11" style="stroke:#181818;stroke-width:1.0;"/><path d="M1146.5156,1389.4844 Q1146.6719,1389.2656 1146.8594,1389.1563 Q1147.0469,1389.0469 1147.2656,1389.0469 Q1147.6406,1389.0469 1147.875,1389.3125 Q1148.1094,1389.5625 1148.1094,1390.1719 L1148.1094,1391.625 Q1148.1094,1392.2344 1147.875,1392.5 Q1147.6406,1392.7656 1147.2656,1392.7656 Q1146.9219,1392.7656 1146.7188,1392.5625 Q1146.5156,1392.375 1146.4063,1391.8594 Q1146.3594,1391.5 1146.1719,1391.3125 Q1145.8438,1390.9375 1145.2344,1390.7188 Q1144.625,1390.5 1144,1390.5 Q1143.2344,1390.5 1142.5938,1390.8281 Q1141.9688,1391.1563 1141.4688,1391.9063 Q1140.9844,1392.6563 1140.9844,1393.6875 L1140.9844,1394.7813 Q1140.9844,1396.0156 1141.875,1396.8438 Q1142.7656,1397.6563 1144.3594,1397.6563 Q1145.2969,1397.6563 1145.9531,1397.4063 Q1146.3438,1397.25 1146.7656,1396.8125 Q1147.0313,1396.5469 1147.1719,1396.4688 Q1147.3281,1396.3906 1147.5313,1396.3906 Q1147.8594,1396.3906 1148.1094,1396.6563 Q1148.375,1396.9063 1148.375,1397.25 Q1148.375,1397.5938 1148.0313,1398 Q1147.5313,1398.5781 1146.7344,1398.9063 Q1145.6563,1399.3594 1144.3594,1399.3594 Q1142.8438,1399.3594 1141.6406,1398.7344 Q1140.6563,1398.2344 1139.9688,1397.1719 Q1139.2813,1396.0938 1139.2813,1394.8125 L1139.2813,1393.6563 Q1139.2813,1392.3281 1139.8906,1391.1875 Q1140.5156,1390.0313 1141.6094,1389.4219 Q1142.7031,1388.7969 1143.9375,1388.7969 Q1144.6719,1388.7969 1145.3125,1388.9688 Q1145.9688,1389.125 1146.5156,1389.4844 Z " fill="#000000"/><text fill="#000000" font-family="sans-serif" font-size="14" lengthAdjust="spacing" textLength="109" x="1164.25" y="1399.3379">HandLandmarker</text><line style="stroke:#181818;stroke-width:0.5;" x1="980.5" x2="1424.5" y1="1409.6094" y2="1409.6094"/><ellipse cx="990.5" cy="1423.9141" fill="#84BE84" rx="3" ry="3" style="stroke:#038048;stroke-width:1.0;"/><text fill="#000000" font-family="sans-serif" font-size="14" lengthAdjust="spacing" textLength="127" x="999.5" y="1428.1426">DetectAsync() : void</text><rect fill="#F24D5C" height="6" style="stroke:#C82930;stroke-width:1.0;" width="6" x="987.5" y="1438.5234"/><text fill="#000000" font-family="sans-serif" font-size="14" lengthAdjust="spacing" textLength="420" x="999.5" y="1445.752">BuildPacketsCallback() : Tasks.Core.TaskRunner.PacketsCallback</text><rect fill="#F24D5C" height="6" style="stroke:#C82930;stroke-width:1.0;" width="6" x="987.5" y="1456.1328"/><text fill="#000000" font-family="sans-serif" font-size="14" lengthAdjust="spacing" textLength="250" x="999.5" y="1463.3613">TryBuildHandLandmarkerResult() : bool</text><ellipse cx="990.5" cy="1476.7422" fill="#84BE84" rx="3" ry="3" style="stroke:#038048;stroke-width:1.0;"/><text fill="#000000" font-family="sans-serif" font-size="14" lengthAdjust="spacing" textLength="256" x="999.5" y="1480.9707">CreateFromOptions() : HandLandmarker</text></g><!--class DisposableObject--><g id="elem_DisposableObject"><rect codeLine="135" fill="#F1F1F1" height="32" id="DisposableObject" rx="2.5" ry="2.5" style="stroke:#181818;stroke-width:0.5;" width="143" x="1582" y="1141.1094"/><ellipse cx="1597" cy="1157.1094" fill="#A9DCDF" rx="11" ry="11" style="stroke:#181818;stroke-width:1.0;"/><path d="M1599.1875,1158.875 L1595.0469,1158.875 L1594.625,1159.9063 L1595.0469,1159.9063 Q1595.6563,1159.9063 1595.9219,1160.1406 Q1596.1875,1160.375 1596.1875,1160.7656 Q1596.1875,1161.1406 1595.9219,1161.375 Q1595.6563,1161.6094 1595.0469,1161.6094 L1592.75,1161.6094 Q1592.1406,1161.6094 1591.8906,1161.375 Q1591.625,1161.1406 1591.625,1160.75 Q1591.625,1160.375 1591.9063,1160.1406 Q1592.1719,1159.8906 1592.7969,1159.9063 L1595.4688,1153.25 L1594.3594,1153.25 Q1593.75,1153.25 1593.4844,1153.0156 Q1593.2188,1152.7813 1593.2188,1152.3906 Q1593.2188,1152.0156 1593.4844,1151.7813 Q1593.75,1151.5469 1594.3594,1151.5469 L1598.0313,1151.5469 L1601.4219,1159.9063 Q1602.0156,1159.9063 1602.2031,1160.0469 Q1602.5938,1160.3125 1602.5938,1160.7656 Q1602.5938,1161.1406 1602.3281,1161.375 Q1602.0781,1161.6094 1601.4688,1161.6094 L1599.1719,1161.6094 Q1598.5625,1161.6094 1598.2969,1161.375 Q1598.0313,1161.1406 1598.0313,1160.75 Q1598.0313,1160.375 1598.2969,1160.1406 Q1598.5625,1159.9063 1599.1719,1159.9063 L1599.5938,1159.9063 L1599.1875,1158.875 Z M1598.4688,1157.1719 L1597.1094,1153.7969 L1595.7344,1157.1719 L1598.4688,1157.1719 Z " fill="#000000"/><text fill="#000000" font-family="sans-serif" font-size="14" font-style="italic" lengthAdjust="spacing" textLength="111" x="1611" y="1162.8379">DisposableObject</text></g><!--class MpResourceHandle--><g id="elem_MpResourceHandle"><rect codeLine="139" fill="#F1F1F1" height="57.6094" id="MpResourceHandle" rx="2.5" ry="2.5" style="stroke:#181818;stroke-width:0.5;" width="172" x="1567.5" y="1403.6094"/><ellipse cx="1588.8" cy="1419.6094" fill="#A9DCDF" rx="11" ry="11" style="stroke:#181818;stroke-width:1.0;"/><path d="M1590.9875,1421.375 L1586.8469,1421.375 L1586.425,1422.4063 L1586.8469,1422.4063 Q1587.4563,1422.4063 1587.7219,1422.6406 Q1587.9875,1422.875 1587.9875,1423.2656 Q1587.9875,1423.6406 1587.7219,1423.875 Q1587.4563,1424.1094 1586.8469,1424.1094 L1584.55,1424.1094 Q1583.9406,1424.1094 1583.6906,1423.875 Q1583.425,1423.6406 1583.425,1423.25 Q1583.425,1422.875 1583.7063,1422.6406 Q1583.9719,1422.3906 1584.5969,1422.4063 L1587.2688,1415.75 L1586.1594,1415.75 Q1585.55,1415.75 1585.2844,1415.5156 Q1585.0188,1415.2813 1585.0188,1414.8906 Q1585.0188,1414.5156 1585.2844,1414.2813 Q1585.55,1414.0469 1586.1594,1414.0469 L1589.8313,1414.0469 L1593.2219,1422.4063 Q1593.8156,1422.4063 1594.0031,1422.5469 Q1594.3938,1422.8125 1594.3938,1423.2656 Q1594.3938,1423.6406 1594.1281,1423.875 Q1593.8781,1424.1094 1593.2688,1424.1094 L1590.9719,1424.1094 Q1590.3625,1424.1094 1590.0969,1423.875 Q1589.8313,1423.6406 1589.8313,1423.25 Q1589.8313,1422.875 1590.0969,1422.6406 Q1590.3625,1422.4063 1590.9719,1422.4063 L1591.3938,1422.4063 L1590.9875,1421.375 Z M1590.2688,1419.6719 L1588.9094,1416.2969 L1587.5344,1419.6719 L1590.2688,1419.6719 Z " fill="#000000"/><text fill="#000000" font-family="sans-serif" font-size="14" font-style="italic" lengthAdjust="spacing" textLength="126" x="1604.2" y="1425.3379">MpResourceHandle</text><line style="stroke:#181818;stroke-width:0.5;" x1="1568.5" x2="1738.5" y1="1435.6094" y2="1435.6094"/><polygon fill="#FFFF44" points="1578.5,1444.9141,1582.5,1448.9141,1578.5,1452.9141,1574.5,1448.9141" style="stroke:#B38D22;stroke-width:1.0;"/><text fill="#000000" font-family="sans-serif" font-size="14" lengthAdjust="spacing" textLength="146" x="1587.5" y="1454.1426">AssertStatusOk() : void</text></g><!--class UnsafeNativeMethods--><g id="elem_UnsafeNativeMethods"><rect codeLine="143" fill="#F1F1F1" height="75.2188" id="UnsafeNativeMethods" rx="2.5" ry="2.5" style="stroke:#181818;stroke-width:0.5;" width="437" x="1603" y="1670.6094"/><ellipse cx="1748.75" cy="1686.6094" fill="#ADD1B2" rx="11" ry="11" style="stroke:#181818;stroke-width:1.0;"/><path d="M1751.5156,1682.4844 Q1751.6719,1682.2656 1751.8594,1682.1563 Q1752.0469,1682.0469 1752.2656,1682.0469 Q1752.6406,1682.0469 1752.875,1682.3125 Q1753.1094,1682.5625 1753.1094,1683.1719 L1753.1094,1684.625 Q1753.1094,1685.2344 1752.875,1685.5 Q1752.6406,1685.7656 1752.2656,1685.7656 Q1751.9219,1685.7656 1751.7188,1685.5625 Q1751.5156,1685.375 1751.4063,1684.8594 Q1751.3594,1684.5 1751.1719,1684.3125 Q1750.8438,1683.9375 1750.2344,1683.7188 Q1749.625,1683.5 1749,1683.5 Q1748.2344,1683.5 1747.5938,1683.8281 Q1746.9688,1684.1563 1746.4688,1684.9063 Q1745.9844,1685.6563 1745.9844,1686.6875 L1745.9844,1687.7813 Q1745.9844,1689.0156 1746.875,1689.8438 Q1747.7656,1690.6563 1749.3594,1690.6563 Q1750.2969,1690.6563 1750.9531,1690.4063 Q1751.3438,1690.25 1751.7656,1689.8125 Q1752.0313,1689.5469 1752.1719,1689.4688 Q1752.3281,1689.3906 1752.5313,1689.3906 Q1752.8594,1689.3906 1753.1094,1689.6563 Q1753.375,1689.9063 1753.375,1690.25 Q1753.375,1690.5938 1753.0313,1691 Q1752.5313,1691.5781 1751.7344,1691.9063 Q1750.6563,1692.3594 1749.3594,1692.3594 Q1747.8438,1692.3594 1746.6406,1691.7344 Q1745.6563,1691.2344 1744.9688,1690.1719 Q1744.2813,1689.0938 1744.2813,1687.8125 L1744.2813,1686.6563 Q1744.2813,1685.3281 1744.8906,1684.1875 Q1745.5156,1683.0313 1746.6094,1682.4219 Q1747.7031,1681.7969 1748.9375,1681.7969 Q1749.6719,1681.7969 1750.3125,1681.9688 Q1750.9688,1682.125 1751.5156,1682.4844 Z " fill="#000000"/><text fill="#000000" font-family="sans-serif" font-size="14" lengthAdjust="spacing" textLength="137" x="1769.25" y="1692.3379">UnsafeNativeMethods</text><line style="stroke:#181818;stroke-width:0.5;" x1="1604" x2="2039" y1="1702.6094" y2="1702.6094"/><ellipse cx="1614" cy="1716.9141" fill="#84BE84" rx="3" ry="3" style="stroke:#038048;stroke-width:1.0;"/><text fill="#000000" font-family="sans-serif" font-size="14" lengthAdjust="spacing" textLength="411" x="1623" y="1721.1426">mp_tasks_core_TaskRunner__Process__Ppm() : MpReturnCode</text><ellipse cx="1614" cy="1734.5234" fill="#84BE84" rx="3" ry="3" style="stroke:#038048;stroke-width:1.0;"/><text fill="#000000" font-family="sans-serif" font-size="14" lengthAdjust="spacing" textLength="393" x="1623" y="1738.752">mp_tasks_core_TaskRunner__Send__Ppm() : MpReturnCode</text></g><!--class TaskRunner--><g id="elem_TaskRunner"><rect codeLine="153" fill="#F1F1F1" height="145.6563" id="TaskRunner" rx="2.5" ry="2.5" style="stroke:#181818;stroke-width:0.5;" width="297" x="1537" y="1862.6094"/><ellipse cx="1642.25" cy="1878.6094" fill="#ADD1B2" rx="11" ry="11" style="stroke:#181818;stroke-width:1.0;"/><path d="M1645.0156,1874.4844 Q1645.1719,1874.2656 1645.3594,1874.1563 Q1645.5469,1874.0469 1645.7656,1874.0469 Q1646.1406,1874.0469 1646.375,1874.3125 Q1646.6094,1874.5625 1646.6094,1875.1719 L1646.6094,1876.625 Q1646.6094,1877.2344 1646.375,1877.5 Q1646.1406,1877.7656 1645.7656,1877.7656 Q1645.4219,1877.7656 1645.2188,1877.5625 Q1645.0156,1877.375 1644.9063,1876.8594 Q1644.8594,1876.5 1644.6719,1876.3125 Q1644.3438,1875.9375 1643.7344,1875.7188 Q1643.125,1875.5 1642.5,1875.5 Q1641.7344,1875.5 1641.0938,1875.8281 Q1640.4688,1876.1563 1639.9688,1876.9063 Q1639.4844,1877.6563 1639.4844,1878.6875 L1639.4844,1879.7813 Q1639.4844,1881.0156 1640.375,1881.8438 Q1641.2656,1882.6563 1642.8594,1882.6563 Q1643.7969,1882.6563 1644.4531,1882.4063 Q1644.8438,1882.25 1645.2656,1881.8125 Q1645.5313,1881.5469 1645.6719,1881.4688 Q1645.8281,1881.3906 1646.0313,1881.3906 Q1646.3594,1881.3906 1646.6094,1881.6563 Q1646.875,1881.9063 1646.875,1882.25 Q1646.875,1882.5938 1646.5313,1883 Q1646.0313,1883.5781 1645.2344,1883.9063 Q1644.1563,1884.3594 1642.8594,1884.3594 Q1641.3438,1884.3594 1640.1406,1883.7344 Q1639.1563,1883.2344 1638.4688,1882.1719 Q1637.7813,1881.0938 1637.7813,1879.8125 L1637.7813,1878.6563 Q1637.7813,1877.3281 1638.3906,1876.1875 Q1639.0156,1875.0313 1640.1094,1874.4219 Q1641.2031,1873.7969 1642.4375,1873.7969 Q1643.1719,1873.7969 1643.8125,1873.9688 Q1644.4688,1874.125 1645.0156,1874.4844 Z " fill="#000000"/><text fill="#000000" font-family="sans-serif" font-size="14" lengthAdjust="spacing" textLength="78" x="1662.75" y="1884.3379">TaskRunner</text><line style="stroke:#181818;stroke-width:0.5;" x1="1538" x2="1833" y1="1894.6094" y2="1894.6094"/><ellipse cx="1548" cy="1908.9141" fill="#84BE84" rx="3" ry="3" style="stroke:#038048;stroke-width:1.0;"/><text fill="#000000" font-family="sans-serif" font-size="14" lengthAdjust="spacing" textLength="143" x="1557" y="1913.1426">Create() : TaskRunner</text><ellipse cx="1548" cy="1926.5234" fill="#84BE84" rx="3" ry="3" style="stroke:#038048;stroke-width:1.0;"/><text fill="#000000" font-family="sans-serif" font-size="14" lengthAdjust="spacing" textLength="143" x="1557" y="1930.752">Process() : PacketMap</text><ellipse cx="1548" cy="1944.1328" fill="#84BE84" rx="3" ry="3" style="stroke:#038048;stroke-width:1.0;"/><text fill="#000000" font-family="sans-serif" font-size="14" lengthAdjust="spacing" textLength="81" x="1557" y="1948.3613">Send() : void</text><ellipse cx="1548" cy="1961.7422" fill="#84BE84" rx="3" ry="3" style="stroke:#038048;stroke-width:1.0;"/><text fill="#000000" font-family="sans-serif" font-size="14" lengthAdjust="spacing" textLength="84" x="1557" y="1965.9707">Close() : void</text><ellipse cx="1548" cy="1979.3516" fill="#84BE84" rx="3" ry="3" style="stroke:#038048;stroke-width:1.0;"/><text fill="#000000" font-family="sans-serif" font-size="14" lengthAdjust="spacing" textLength="94" x="1557" y="1983.5801">Restart() : void</text><ellipse cx="1548" cy="1996.9609" fill="#84BE84" rx="3" ry="3" style="stroke:#038048;stroke-width:1.0;"/><text fill="#000000" font-family="sans-serif" font-size="14" lengthAdjust="spacing" textLength="271" x="1557" y="2001.1895">GetGraphConfig() : CalculatorGraphConfig</text></g><!--class PacketMap--><g id="elem_PacketMap"><rect fill="#F1F1F1" height="32" id="PacketMap" rx="2.5" ry="2.5" style="stroke:#181818;stroke-width:0.5;" width="102" x="2075.5" y="1692.1094"/><ellipse cx="2090.5" cy="1708.1094" fill="#ADD1B2" rx="11" ry="11" style="stroke:#181818;stroke-width:1.0;"/><path d="M2093.2656,1703.9844 Q2093.4219,1703.7656 2093.6094,1703.6563 Q2093.7969,1703.5469 2094.0156,1703.5469 Q2094.3906,1703.5469 2094.625,1703.8125 Q2094.8594,1704.0625 2094.8594,1704.6719 L2094.8594,1706.125 Q2094.8594,1706.7344 2094.625,1707 Q2094.3906,1707.2656 2094.0156,1707.2656 Q2093.6719,1707.2656 2093.4688,1707.0625 Q2093.2656,1706.875 2093.1563,1706.3594 Q2093.1094,1706 2092.9219,1705.8125 Q2092.5938,1705.4375 2091.9844,1705.2188 Q2091.375,1705 2090.75,1705 Q2089.9844,1705 2089.3438,1705.3281 Q2088.7188,1705.6563 2088.2188,1706.4063 Q2087.7344,1707.1563 2087.7344,1708.1875 L2087.7344,1709.2813 Q2087.7344,1710.5156 2088.625,1711.3438 Q2089.5156,1712.1563 2091.1094,1712.1563 Q2092.0469,1712.1563 2092.7031,1711.9063 Q2093.0938,1711.75 2093.5156,1711.3125 Q2093.7813,1711.0469 2093.9219,1710.9688 Q2094.0781,1710.8906 2094.2813,1710.8906 Q2094.6094,1710.8906 2094.8594,1711.1563 Q2095.125,1711.4063 2095.125,1711.75 Q2095.125,1712.0938 2094.7813,1712.5 Q2094.2813,1713.0781 2093.4844,1713.4063 Q2092.4063,1713.8594 2091.1094,1713.8594 Q2089.5938,1713.8594 2088.3906,1713.2344 Q2087.4063,1712.7344 2086.7188,1711.6719 Q2086.0313,1710.5938 2086.0313,1709.3125 L2086.0313,1708.1563 Q2086.0313,1706.8281 2086.6406,1705.6875 Q2087.2656,1704.5313 2088.3594,1703.9219 Q2089.4531,1703.2969 2090.6875,1703.2969 Q2091.4219,1703.2969 2092.0625,1703.4688 Q2092.7188,1703.625 2093.2656,1703.9844 Z " fill="#000000"/><text fill="#000000" font-family="sans-serif" font-size="14" lengthAdjust="spacing" textLength="70" x="2104.5" y="1713.8379">PacketMap</text></g><!--class HandLandmarkerRunner--><g id="elem_HandLandmarkerRunner"><rect codeLine="198" fill="#F1F1F1" height="118.4375" id="HandLandmarkerRunner" rx="2.5" ry="2.5" style="stroke:#181818;stroke-width:0.5;" width="292" x="485.5" y="1876.6094"/><ellipse cx="549.25" cy="1892.6094" fill="#ADD1B2" rx="11" ry="11" style="stroke:#181818;stroke-width:1.0;"/><path d="M552.0156,1888.4844 Q552.1719,1888.2656 552.3594,1888.1563 Q552.5469,1888.0469 552.7656,1888.0469 Q553.1406,1888.0469 553.375,1888.3125 Q553.6094,1888.5625 553.6094,1889.1719 L553.6094,1890.625 Q553.6094,1891.2344 553.375,1891.5 Q553.1406,1891.7656 552.7656,1891.7656 Q552.4219,1891.7656 552.2188,1891.5625 Q552.0156,1891.375 551.9063,1890.8594 Q551.8594,1890.5 551.6719,1890.3125 Q551.3438,1889.9375 550.7344,1889.7188 Q550.125,1889.5 549.5,1889.5 Q548.7344,1889.5 548.0938,1889.8281 Q547.4688,1890.1563 546.9688,1890.9063 Q546.4844,1891.6563 546.4844,1892.6875 L546.4844,1893.7813 Q546.4844,1895.0156 547.375,1895.8438 Q548.2656,1896.6563 549.8594,1896.6563 Q550.7969,1896.6563 551.4531,1896.4063 Q551.8438,1896.25 552.2656,1895.8125 Q552.5313,1895.5469 552.6719,1895.4688 Q552.8281,1895.3906 553.0313,1895.3906 Q553.3594,1895.3906 553.6094,1895.6563 Q553.875,1895.9063 553.875,1896.25 Q553.875,1896.5938 553.5313,1897 Q553.0313,1897.5781 552.2344,1897.9063 Q551.1563,1898.3594 549.8594,1898.3594 Q548.3438,1898.3594 547.1406,1897.7344 Q546.1563,1897.2344 545.4688,1896.1719 Q544.7813,1895.0938 544.7813,1893.8125 L544.7813,1892.6563 Q544.7813,1891.3281 545.3906,1890.1875 Q546.0156,1889.0313 547.1094,1888.4219 Q548.2031,1887.7969 549.4375,1887.7969 Q550.1719,1887.7969 550.8125,1887.9688 Q551.4688,1888.125 552.0156,1888.4844 Z " fill="#000000"/><text fill="#000000" font-family="sans-serif" font-size="14" lengthAdjust="spacing" textLength="156" x="569.75" y="1898.3379">HandLandmarkerRunner</text><line style="stroke:#181818;stroke-width:0.5;" x1="486.5" x2="776.5" y1="1908.6094" y2="1908.6094"/><ellipse cx="496.5" cy="1922.9141" fill="none" rx="3" ry="3" style="stroke:#038048;stroke-width:1.0;"/><text fill="#000000" font-family="sans-serif" font-size="14" lengthAdjust="spacing" textLength="247" x="505.5" y="1927.1426">config : HandLandmarkDetectionConfig</text><line style="stroke:#181818;stroke-width:0.5;" x1="486.5" x2="776.5" y1="1934.2188" y2="1934.2188"/><ellipse cx="496.5" cy="1948.5234" fill="#84BE84" rx="3" ry="3" style="stroke:#038048;stroke-width:1.0;"/><text fill="#000000" font-family="sans-serif" font-size="14" lengthAdjust="spacing" textLength="77" x="505.5" y="1952.752">Stop() : void</text><polygon fill="#FFFF44" points="496.5,1961.1328,500.5,1965.1328,496.5,1969.1328,492.5,1965.1328" style="stroke:#B38D22;stroke-width:1.0;"/><text fill="#000000" font-family="sans-serif" font-size="14" lengthAdjust="spacing" textLength="125" x="505.5" y="1970.3613">Run() : IEnumerator</text><rect fill="#F24D5C" height="6" style="stroke:#C82930;stroke-width:1.0;" width="6" x="493.5" y="1980.7422"/><text fill="#000000" font-family="sans-serif" font-size="14" lengthAdjust="spacing" textLength="266" x="505.5" y="1987.9707">OnHandLandmarkDetectionOutput() : void</text></g><g id="elem_GMN67"><path d="M282.5,1922.6094 L282.5,1948.9609 A0,0 0 0 0 282.5,1948.9609 L450.5,1948.9609 A0,0 0 0 0 450.5,1948.9609 L450.5,1940.6094 L485.23,1935.6094 L450.5,1932.6094 L450.5,1932.6094 L440.5,1922.6094 L282.5,1922.6094 A0,0 0 0 0 282.5,1922.6094 " fill="#FEFFDD" style="stroke:#181818;stroke-width:0.5;"/><path d="M440.5,1922.6094 L440.5,1932.6094 L450.5,1932.6094 L440.5,1922.6094 " fill="#FEFFDD" style="stroke:#181818;stroke-width:0.5;"/><text fill="#000000" font-family="sans-serif" font-size="13" lengthAdjust="spacing" textLength="147" x="288.5" y="1941.1045">Attach to a empty object.</text></g><!--reverse link Object to Component--><g id="link_Object_Component"><path codeLine="6" d="M772.4813,91.4818 C758.0513,108.1318 746.89,121.0094 732.54,137.5694 " fill="none" id="Object-backto-Component" style="stroke:#181818;stroke-width:1.0;"/><polygon fill="none" points="784.27,77.8794,767.9471,87.5522,777.0154,95.4114,784.27,77.8794" style="stroke:#181818;stroke-width:1.0;"/></g><!--reverse link Object to ScriptableObject--><g id="link_Object_ScriptableObject"><path codeLine="7" d="M826.6854,90.2606 C844.2554,106.9106 859.14,121.0094 876.62,137.5694 " fill="none" id="Object-backto-ScriptableObject" style="stroke:#181818;stroke-width:1.0;"/><polygon fill="none" points="813.62,77.8794,822.5583,94.6158,830.8125,85.9055,813.62,77.8794" style="stroke:#181818;stroke-width:1.0;"/></g><!--reverse link Component to Behaviour--><g id="link_Component_Behaviour"><path codeLine="8" d="M708.5456,186.8512 C701.9256,206.3212 696.31,222.8494 689.69,242.3494 " fill="none" id="Component-backto-Behaviour" style="stroke:#181818;stroke-width:1.0;"/><polygon fill="none" points="714.34,169.8094,702.865,184.9198,714.2262,188.7827,714.34,169.8094" style="stroke:#181818;stroke-width:1.0;"/></g><!--reverse link Behaviour to MonoBehaviour--><g id="link_Behaviour_MonoBehaviour"><path codeLine="9" d="M677.1852,292.3763 C672.8352,311.8463 669.26,327.8494 664.91,347.3494 " fill="none" id="Behaviour-backto-MonoBehaviour" style="stroke:#181818;stroke-width:1.0;"/><polygon fill="none" points="681.11,274.8094,671.3296,291.068,683.0408,293.6845,681.11,274.8094" style="stroke:#181818;stroke-width:1.0;"/></g><!--reverse link MonoBehaviour to ImageSource--><g id="link_MonoBehaviour_ImageSource"><path codeLine="11" d="M661.5,397.6394 C661.5,412.7794 661.5,419.2894 661.5,443.3594 " fill="none" id="MonoBehaviour-backto-ImageSource" style="stroke:#181818;stroke-width:1.0;"/><polygon fill="none" points="661.5,379.6394,655.5,397.6394,667.5,397.6394,661.5,379.6394" style="stroke:#181818;stroke-width:1.0;"/></g><!--reverse link MonoBehaviour to AnnotationController--><g id="link_MonoBehaviour_AnnotationController"><path codeLine="13" d="M577.8138,373.7298 C495.5138,383.8198 379.29,403.2294 346.5,439.6094 C283.78,509.1994 289.77,627.6794 299,692.4694 " fill="none" id="MonoBehaviour-backto-AnnotationController" style="stroke:#181818;stroke-width:1.0;"/><polygon fill="none" points="595.68,371.5394,577.0836,367.7744,578.5439,379.6852,595.68,371.5394" style="stroke:#181818;stroke-width:1.0;"/></g><!--reverse link AnnotationController to HandLandmarkerResultAnnotationController--><g id="link_AnnotationController_HandLandmarkerResultAnnotationController"><path codeLine="21" d="M300.8402,803.7824 C295.0802,856.3724 286.2,927.2094 271.5,1002.6094 C264.37,1039.1794 253.86,1080.0394 245.55,1110.3994 " fill="none" id="AnnotationController-backto-HandLandmarkerResultAnnotationController" style="stroke:#181818;stroke-width:1.0;"/><polygon fill="none" points="302.8,785.8894,294.8759,803.1291,306.8046,804.4356,302.8,785.8894" style="stroke:#181818;stroke-width:1.0;"/></g><!--reverse link MonoBehaviour to HierarchicalAnnotation--><g id="link_MonoBehaviour_HierarchicalAnnotation"><path codeLine="29" d="M578.0047,373.2348 C501.1947,382.3248 388.95,400.2194 283.5,439.6094 C241.65,455.2394 197.45,483.0894 172.01,500.3894 " fill="none" id="MonoBehaviour-backto-HierarchicalAnnotation" style="stroke:#181818;stroke-width:1.0;"/><polygon fill="none" points="595.88,371.1194,577.2996,367.2764,578.7099,379.1932,595.88,371.1194" style="stroke:#181818;stroke-width:1.0;"/></g><!--reverse link IHierachicalAnnotation to HierarchicalAnnotation--><g id="link_IHierachicalAnnotation_HierarchicalAnnotation"><path codeLine="30" d="M150.5,397.6394 C150.5,426.4294 150.5,471.0894 150.5,500.1894 " fill="none" id="IHierachicalAnnotation-backto-HierarchicalAnnotation" style="stroke:#181818;stroke-width:1.0;stroke-dasharray:7.0,7.0;"/><polygon fill="none" points="150.5,379.6394,144.5,397.6394,156.5,397.6394,150.5,379.6394" style="stroke:#181818;stroke-width:1.0;"/></g><!--reverse link HierarchicalAnnotation to ListAnnotation--><g id="link_HierarchicalAnnotation_ListAnnotation"><path codeLine="36" d="M147.5012,550.6955 C143.8412,590.9755 135.55,682.4494 131.88,722.8494 " fill="none" id="HierarchicalAnnotation-backto-ListAnnotation" style="stroke:#181818;stroke-width:1.0;"/><polygon fill="none" points="149.13,532.7694,141.5258,550.1526,153.4765,551.2385,149.13,532.7694" style="stroke:#181818;stroke-width:1.0;"/></g><!--reverse link ListAnnotation to MultiHandLandmarkListAnnotation--><g id="link_ListAnnotation_MultiHandLandmarkListAnnotation"><path codeLine="40" d="M130.5,773.3294 C130.5,807.1794 130.5,871.1194 130.5,914.5294 " fill="none" id="ListAnnotation-backto-MultiHandLandmarkListAnnotation" style="stroke:#181818;stroke-width:1.0;"/><polygon fill="none" points="130.5,755.3294,124.5,773.3294,136.5,773.3294,130.5,755.3294" style="stroke:#181818;stroke-width:1.0;"/></g><!--reverse link ImageSource to WebCamSource--><g id="link_ImageSource_WebCamSource"><path codeLine="55" d="M652.5133,607.7205 C650.4833,628.0705 650.04,632.4794 647.94,653.4794 " fill="none" id="ImageSource-backto-WebCamSource" style="stroke:#181818;stroke-width:1.0;"/><polygon fill="none" points="654.3,589.8094,646.5429,607.1249,658.4837,608.316,654.3,589.8094" style="stroke:#181818;stroke-width:1.0;"/></g><!--reverse link IDisposable to BaseVisionTaskApi--><g id="link_IDisposable_BaseVisionTaskApi"><path codeLine="69" d="M1531.9478,975.9428 C1514.4578,1011.1828 1478.94,1082.7094 1456.45,1128.0094 " fill="none" id="IDisposable-backto-BaseVisionTaskApi" style="stroke:#181818;stroke-width:1.0;stroke-dasharray:7.0,7.0;"/><polygon fill="none" points="1539.95,959.8194,1526.5733,973.2754,1537.3222,978.6102,1539.95,959.8194" style="stroke:#181818;stroke-width:1.0;"/></g><!--reverse link MonoBehaviour to BaseRunner--><g id="link_MonoBehaviour_BaseRunner"><path codeLine="71" d="M724.874,386.5858 C752.794,398.2258 769.44,410.4494 786.5,439.6094 C870.99,584.0494 843.38,1080.4494 825.15,1311.5094 " fill="none" id="MonoBehaviour-backto-BaseRunner" style="stroke:#181818;stroke-width:1.0;"/><polygon fill="none" points="708.26,379.6594,722.5652,392.1238,727.1828,381.0478,708.26,379.6594" style="stroke:#181818;stroke-width:1.0;"/></g><!--reverse link Bootstrap to BaseRunner--><g id="link_Bootstrap_BaseRunner"><path codeLine="87" d="M920.4891,1256.9799 C908.8591,1276.1599 899.57,1291.4594 887.46,1311.4094 " fill="none" id="Bootstrap-backto-BaseRunner" style="stroke:#181818;stroke-width:1.0;stroke-dasharray:7.0,7.0;"/><polygon fill="#181818" points="923.6,1251.8494,915.5133,1257.4712,921.0076,1256.1248,922.3539,1261.6191,923.6,1251.8494" style="stroke:#181818;stroke-width:1.0;"/></g><!--reverse link MonoBehaviour to Bootstrap--><g id="link_MonoBehaviour_Bootstrap"><path codeLine="89" d="M744.5606,377.8521 C786.4106,387.2721 820.83,402.1594 851.5,439.6094 C1012.57,636.2894 907.25,752.4494 952.5,1002.6094 C956,1021.9394 959.76,1042.6294 963.35,1062.3594 " fill="none" id="MonoBehaviour-backto-Bootstrap" style="stroke:#181818;stroke-width:1.0;"/><polygon fill="none" points="727,373.8994,743.2431,383.7056,745.8782,371.9985,727,373.8994" style="stroke:#181818;stroke-width:1.0;"/></g><!--reverse link ImageSourceProvider to Bootstrap--><g id="link_ImageSourceProvider_Bootstrap"><path codeLine="102" d="M733.9031,1005.8025 C776.7331,1031.9125 822.5,1059.7994 867.26,1087.0894 " fill="none" id="ImageSourceProvider-backto-Bootstrap" style="stroke:#181818;stroke-width:1.0;stroke-dasharray:7.0,7.0;"/><polygon fill="#181818" points="728.78,1002.6794,734.3825,1010.7795,733.0492,1005.282,738.5467,1003.9487,728.78,1002.6794" style="stroke:#181818;stroke-width:1.0;"/></g><!--reverse link AppSettings to Bootstrap--><g id="link_AppSettings_Bootstrap"><path codeLine="111" d="M960.5571,293.8907 C967.1971,341.0207 978.5,432.6094 978.5,515.6094 C978.5,515.6094 978.5,515.6094 978.5,740.1094 C978.5,850.7894 979.22,978.0394 979.79,1062.3494 " fill="none" id="AppSettings-backto-Bootstrap" style="stroke:#181818;stroke-width:1.0;stroke-dasharray:7.0,7.0;"/><polygon fill="#181818" points="959.72,287.9494,957.0147,297.4194,960.4175,292.9005,964.9365,296.3033,959.72,287.9494" style="stroke:#181818;stroke-width:1.0;"/></g><!--reverse link ScriptableObject to AppSettings--><g id="link_ScriptableObject_AppSettings"><path codeLine="112" d="M911.1889,185.1668 C920.7689,200.8368 926.54,210.2694 938.32,229.5194 " fill="none" id="ScriptableObject-backto-AppSettings" style="stroke:#181818;stroke-width:1.0;"/><polygon fill="none" points="901.8,169.8094,906.0697,188.2964,916.308,182.0371,901.8,169.8094" style="stroke:#181818;stroke-width:1.0;"/></g><!--reverse link MonoBehaviour to Screen--><g id="link_MonoBehaviour_Screen"><path codeLine="118" d="M618.3235,388.4896 C592.5435,402.9596 568.91,417.0694 536.5,439.6094 C530.6,443.7094 524.6,448.0594 518.62,452.5194 " fill="none" id="MonoBehaviour-backto-Screen" style="stroke:#181818;stroke-width:1.0;"/><polygon fill="none" points="634.02,379.6794,615.3868,383.2575,621.2603,393.7218,634.02,379.6794" style="stroke:#181818;stroke-width:1.0;"/></g><!--reverse link BaseRunner to VisionTaskApiRunner--><g id="link_BaseRunner_VisionTaskApiRunner"><path codeLine="129" d="M814.5,1571.9694 C814.5,1591.8894 814.5,1594.2794 814.5,1613.4194 " fill="none" id="BaseRunner-backto-VisionTaskApiRunner" style="stroke:#181818;stroke-width:1.0;"/><polygon fill="none" points="814.5,1553.9694,808.5,1571.9694,820.5,1571.9694,814.5,1553.9694" style="stroke:#181818;stroke-width:1.0;"/></g><!--reverse link HandLandmarker to VisionTaskApiRunner--><g id="link_HandLandmarker_VisionTaskApiRunner"><path codeLine="131" d="M1120.936,1491.0964 C1066.606,1529.3964 997.52,1578.0994 935.3,1621.9594 " fill="none" id="HandLandmarker-backto-VisionTaskApiRunner" style="stroke:#181818;stroke-width:1.0;stroke-dasharray:7.0,7.0;"/><polygon fill="#181818" points="1125.84,1487.6394,1116.1794,1489.5556,1121.7534,1490.5203,1120.7888,1496.0943,1125.84,1487.6394" style="stroke:#181818;stroke-width:1.0;"/></g><!--reverse link IDisposable to DisposableObject--><g id="link_IDisposable_DisposableObject"><path codeLine="133" d="M1563.1863,975.9108 C1582.7463,1014.9308 1626.46,1102.1694 1645.95,1141.0394 " fill="none" id="IDisposable-backto-DisposableObject" style="stroke:#181818;stroke-width:1.0;stroke-dasharray:7.0,7.0;"/><polygon fill="none" points="1555.12,959.8194,1557.8225,978.5996,1568.5501,973.222,1555.12,959.8194" style="stroke:#181818;stroke-width:1.0;"/></g><!--reverse link DisposableObject to MpResourceHandle--><g id="link_DisposableObject_MpResourceHandle"><path codeLine="137" d="M1653.5,1191.1994 C1653.5,1235.2094 1653.5,1345.9094 1653.5,1403.3494 " fill="none" id="DisposableObject-backto-MpResourceHandle" style="stroke:#181818;stroke-width:1.0;"/><polygon fill="none" points="1653.5,1173.1994,1647.5,1191.1994,1659.5,1191.1994,1653.5,1173.1994" style="stroke:#181818;stroke-width:1.0;"/></g><!--reverse link MpResourceHandle to TaskRunner--><g id="link_MpResourceHandle_TaskRunner"><path codeLine="148" d="M1630.881,1478.2582 C1600.331,1541.1082 1544.21,1679.7294 1585.5,1802.6094 C1592.6,1823.7294 1604.56,1844.1594 1617.8,1862.3794 " fill="none" id="MpResourceHandle-backto-TaskRunner" style="stroke:#181818;stroke-width:1.0;"/><polygon fill="none" points="1638.75,1462.0694,1625.4847,1475.6352,1636.2772,1480.8812,1638.75,1462.0694" style="stroke:#181818;stroke-width:1.0;"/></g><!--reverse link MpResourceHandle to PacketMap--><g id="link_MpResourceHandle_PacketMap"><path codeLine="149" d="M1756.8782,1463.118 C1843.7882,1490.498 1961.3,1536.2794 2057.5,1613.6094 C2085.17,1635.8594 2107.41,1671.7094 2118.6,1691.9394 " fill="none" id="MpResourceHandle-backto-PacketMap" style="stroke:#181818;stroke-width:1.0;"/><polygon fill="none" points="1739.71,1457.7094,1755.0753,1468.8407,1758.6811,1457.3953,1739.71,1457.7094" style="stroke:#181818;stroke-width:1.0;"/></g><!--reverse link UnsafeNativeMethods to TaskRunner--><g id="link_UnsafeNativeMethods_TaskRunner"><path codeLine="150" d="M1796.251,1750.9771 C1777.281,1782.4271 1752.5,1823.5094 1729.08,1862.3394 " fill="none" id="UnsafeNativeMethods-backto-TaskRunner" style="stroke:#181818;stroke-width:1.0;stroke-dasharray:7.0,7.0;"/><polygon fill="#181818" points="1799.35,1745.8394,1791.2764,1751.48,1796.7675,1750.1208,1798.1267,1755.612,1799.35,1745.8394" style="stroke:#181818;stroke-width:1.0;"/></g><!--reverse link PacketMap to TaskRunner--><g id="link_PacketMap_TaskRunner"><path codeLine="151" d="M2116.2375,1729.5547 C2105.3875,1750.0947 2086.18,1781.3394 2057.5,1802.6094 C1991.86,1851.2794 1906.65,1883.2494 1834.35,1903.5194 " fill="none" id="PacketMap-backto-TaskRunner" style="stroke:#181818;stroke-width:1.0;stroke-dasharray:7.0,7.0;"/><polygon fill="#181818" points="2119.04,1724.2494,2111.2994,1730.339,2116.7046,1728.6705,2118.3732,1734.0756,2119.04,1724.2494" style="stroke:#181818;stroke-width:1.0;"/></g><!--reverse link BaseVisionTaskApi to HandLandmarker--><g id="link_BaseVisionTaskApi_HandLandmarker"><path codeLine="162" d="M1405.848,1199.8792 C1366.388,1244.8492 1300.45,1319.9894 1250,1377.4794 " fill="none" id="BaseVisionTaskApi-backto-HandLandmarker" style="stroke:#181818;stroke-width:1.0;"/><polygon fill="none" points="1417.72,1186.3494,1401.338,1195.9218,1410.3579,1203.8365,1417.72,1186.3494" style="stroke:#181818;stroke-width:1.0;"/></g><!--link BaseVisionTaskApi to TaskRunner--><g id="link_BaseVisionTaskApi_TaskRunner"><path codeLine="163" d="M1442.36,1186.2294 C1442.99,1279.3894 1453.82,1584.4294 1563.5,1802.6094 C1574.22,1823.9394 1585.4454,1839.8236 1601.5054,1857.9036 " fill="none" id="BaseVisionTaskApi-to-TaskRunner" style="stroke:#181818;stroke-width:1.0;stroke-dasharray:7.0,7.0;"/><polygon fill="#181818" points="1605.49,1862.3894,1602.5036,1853.0042,1602.1695,1858.6512,1596.5225,1858.3171,1605.49,1862.3894" style="stroke:#181818;stroke-width:1.0;"/></g><!--reverse link VisionTaskApiRunner to HandLandmarkerRunner--><g id="link_VisionTaskApiRunner_HandLandmarkerRunner"><path codeLine="180" d="M727.138,1816.7565 C706.908,1841.6865 696.98,1853.9194 678.79,1876.3394 " fill="none" id="VisionTaskApiRunner-backto-HandLandmarkerRunner" style="stroke:#181818;stroke-width:1.0;"/><polygon fill="none" points="738.48,1802.7794,722.479,1812.9758,731.797,1820.5371,738.48,1802.7794" style="stroke:#181818;stroke-width:1.0;"/></g><!--reverse link HandLandmarkerResultAnnotationController to HandLandmarkerRunner--><g id="link_HandLandmarkerResultAnnotationController_HandLandmarkerRunner"><path codeLine="182" d="M234.6744,1209.6789 C241.3544,1322.5589 272,1613.6294 415.5,1802.6094 C438.16,1832.4494 469.68,1857.0494 501.65,1876.5994 " fill="none" id="HandLandmarkerResultAnnotationController-backto-HandLandmarkerRunner" style="stroke:#181818;stroke-width:1.0;stroke-dasharray:7.0,7.0;"/><polygon fill="#181818" points="234.32,1203.6894,230.8587,1212.91,234.6154,1208.6806,238.8447,1212.4374,234.32,1203.6894" style="stroke:#181818;stroke-width:1.0;"/></g><!--reverse link MultiHandLandmarkListAnnotation to HandLandmarkerResultAnnotationController--><g id="link_MultiHandLandmarkListAnnotation_HandLandmarkerResultAnnotationController"><path codeLine="184" d="M146.6474,978.1032 C163.6174,1013.2732 190.29,1068.5794 210.49,1110.4594 " fill="none" id="MultiHandLandmarkListAnnotation-backto-HandLandmarkerResultAnnotationController" style="stroke:#181818;stroke-width:1.0;stroke-dasharray:7.0,7.0;"/><polygon fill="#181818" points="144.04,972.6994,144.3486,982.5434,146.2129,977.2026,151.5537,979.0668,144.04,972.6994" style="stroke:#181818;stroke-width:1.0;"/></g><!--reverse link HandLandmarker to HandLandmarkerRunner--><g id="link_HandLandmarker_HandLandmarkerRunner"><path codeLine="186" d="M1175.9452,1493.0588 C1138.3452,1572.1988 1061.02,1714.3694 952.5,1802.6094 C901.78,1843.8594 836.39,1873.8494 777.88,1894.7194 " fill="none" id="HandLandmarker-backto-HandLandmarkerRunner" style="stroke:#181818;stroke-width:1.0;stroke-dasharray:7.0,7.0;"/><polygon fill="#181818" points="1178.52,1487.6394,1171.0448,1494.052,1176.3743,1492.1556,1178.2707,1497.4851,1178.52,1487.6394" style="stroke:#181818;stroke-width:1.0;"/></g><!--reverse link ImageSourceProvider to HandLandmarkerRunner--><g id="link_ImageSourceProvider_HandLandmarkerRunner"><path codeLine="187" d="M633.368,1008.8394 C633.018,1184.3694 631.97,1701.0194 631.62,1876.4494 " fill="none" id="ImageSourceProvider-backto-HandLandmarkerRunner" style="stroke:#181818;stroke-width:1.0;stroke-dasharray:7.0,7.0;"/><polygon fill="#181818" points="633.38,1002.8394,629.3621,1011.8314,633.37,1007.8394,637.362,1011.8473,633.38,1002.8394" style="stroke:#181818;stroke-width:1.0;"/></g><!--reverse link Screen to HandLandmarkerRunner--><g id="link_Screen_HandLandmarkerRunner"><path codeLine="188" d="M441.5,599.6194 C441.5,684.6494 441.5,820.4994 441.5,942.6094 C441.5,942.6094 441.5,942.6094 441.5,1433.6094 C441.5,1603.3794 538.06,1785.7094 593.51,1876.4094 " fill="none" id="Screen-backto-HandLandmarkerRunner" style="stroke:#181818;stroke-width:1.0;stroke-dasharray:7.0,7.0;"/><polygon fill="#181818" points="441.5,593.6194,437.5,602.6194,441.5,598.6194,445.5,602.6194,441.5,593.6194" style="stroke:#181818;stroke-width:1.0;"/></g><!--reverse link WebCamSource to ImageSourceProvider--><g id="link_WebCamSource_ImageSourceProvider"><path codeLine="189" d="M636.8136,830.8068 C636.2236,850.8668 635.78,865.7994 635.23,884.3694 " fill="none" id="WebCamSource-backto-ImageSourceProvider" style="stroke:#181818;stroke-width:1.0;stroke-dasharray:7.0,7.0;"/><polygon fill="#181818" points="636.99,824.8094,632.7271,833.6879,636.843,829.8072,640.7237,833.9231,636.99,824.8094" style="stroke:#181818;stroke-width:1.0;"/></g><!--SRC=[ZLZTRkCe5BxtKrZApQv6oGECHYErwKmdKjDactRdCYBsIS8KWmMusMot- -nx0CS6ZDkjrCfmFWwSx_n1DTKCyYMKbAnf3VaJf_gShrbpe3p_GNXvXxyLaSyWi-n8IyYXgX5HGRK3gR9ijVi5XSw__3ETvdDHrO83ry7iff2qrcJ7mCrc7Sp9h-58NgXePDPzES5ISD4Bis3e48kA7623mmAIyYlEXIQQ2ZuNN4l1c363x9IM18zNCA9K4lIQvVWpsMWYzM-_vv_p5q5BDtT7D3pL9VwD1AyNlM-RCo_knQcNlsLPQXTto93b1r0Dq-c3k_F-NxopuTED92TpPXaTrzamRwH4JpmIUO3OqfGP2P9_K9145aTQ4DQV8rlO-NWQbyncOqko1STpxaa1UNhrwzl0UsbL1fYMk3FVKQNzZIEbeTWe2sVQ-4JYgU-DMAjJzW7CkCawAU0vEf0Nw1RlnHemp2adyltdGTQCdAreyOqt5PAYXGmH9eWgU1-p9eqQss6ZHJqYkWLzYJ7uIpVIgMY_ZQMUQOxMdx2Ra-gIrSv-VyuGCDsUx4oh1pN-zCVc2AF4ZD4nJiBGz8717vlPX_ODLRLGfY3YT3zmgN5D5Fn95GR68r7FLpLDvfn1FJIS9yfPBygHgUdsMWXj0FKzgGnH-4tvmKXs5ybQmfxiK7QBaBP8vvDEZ89E2SvJPVaeSHeXB0igNrSm0mfJmUYOUoV0ql4va4Mkc7YUe1KeJQfwIHcZ2WeBOy9OF_bEUTbPPGMzZUYkRf1_QPtISffsHxUqZTT-kVK1gUiDQ8syAzpegX-X9PJl0KzRm5AKnZyBVspa2ezArT4ZVBgbwfQ9mmARDIMC_WszQCM_SHDD7YLJWniwPNe31JRqO3z_rOhZGHbMJrEb_cYe3WgKbxPhALvGaNHKzLGeK-2AOGMxu5qbSwWtlmny3Xgx1seTwmIFvpg2cXc4_zlfxFZnSxKJRqvK5yUmItkE2gs9Rp7j1SDpPUjwRyeQUDrGLlhrosuO5BbqNyKT0RekuaQkzYdxZLeUoCcQR_RHNIdqYc2Q0LFg1bEc7SKeKfexGC2Gbmhsb46jkfIay8fYcKpY1jMl7xTbAAvkCS3qvdYkxSurMcdvDQSnjJPI5GCCjvChfK1gB6EwKQldm7AtweahieTx3A0NM88-YjAvkQgt6erJsq98s1exdP7RBOPx0KhXHrrPXMPZT11UrKfuV-a6U3copiHCP82pkry_0bYJuXdq4cCwOOlrbQUY0yU2bev-nh8mbt298WzhMgWZmKhw0zWspSiWwkPCg46qnlTmqszlCIsFUDtTquCLpGah6cPgcoUvX6mGVgbxTm8rctrDM3p0sRWnPjmXZHkD35GtH9FthdE9P40jaowlszJFFqcKOILfMyD3FygyUqpR4WVzSzWrurxfTTY63pi4MgMRElMs28nBM9DysIIBm_ZxnKPSMiK7L-hKodUULObgbTnshEKbmSw5utA_0LXKGdlwnUSU3A2nqbsfe3nZRx3TnYMOmeHWE_piqb7DvbXXPdrCpoAaqV0eprP9YZ-hoLqqBhd-NOfgLHjANN97MVKsychjIqPXypHQwSnpVZ9PdBXoJv8XQwujIKMhHjTDU8N1M82SmLxZbKnhV6pcMkIa_GU7iArablq7]--></g></svg>